{"glyphs":{"a":{"x_min":0,"x_max":587,"ha":587,"o":"m 236 200 q 232 190 218 169 q 203 148 182 124 q 161 100 136 75 q 110 50 86 31 q 61 12 39 2 q 17 -9 2 -4 q -18 2 -36 10 q -53 17 -67 26 q -81 35 -90 46 q -98 56 -99 70 q -101 115 -78 180 q -54 245 -6 317 q 10 341 34 372 q 58 403 90 431 q 123 459 164 478 q 206 497 257 497 q 288 497 315 490 q 342 483 362 472 q 382 460 395 446 q 408 431 412 417 q 416 404 412 393 q 408 382 392 382 q 374 382 368 390 q 363 398 358 408 q 353 418 344 426 q 334 435 309 435 q 285 435 260 417 q 234 399 210 374 q 187 348 168 321 q 149 294 138 277 q 138 276 126 257 q 114 238 99 212 q 84 186 69 160 q 54 133 47 117 q 41 105 49 102 q 57 98 73 106 q 86 113 105 129 q 124 145 145 166 q 166 188 188 212 q 209 236 228 258 q 247 281 262 301 q 277 321 285 333 l 313 396 q 314 397 332 388 q 349 380 371 366 q 393 351 413 334 q 433 317 439 302 q 444 288 433 272 q 422 256 407 227 q 407 227 400 212 q 392 198 382 178 q 372 157 362 134 q 353 112 350 97 q 347 79 353 76 q 359 73 368 78 q 377 82 386 90 q 395 98 399 102 q 427 128 460 167 q 492 206 524 244 l 621 362 q 619 356 619 344 q 619 333 615 316 q 611 299 600 276 q 590 254 569 225 l 561 218 l 535 182 q 512 153 489 122 q 466 92 440 66 q 414 38 386 20 q 357 1 330 0 q 311 0 292 8 q 274 15 260 29 q 245 43 236 62 q 228 81 228 103 q 228 115 229 130 q 230 145 232 159 q 233 173 234 184 q 236 195 236 200 z"},"L":{"x_min":0,"x_max":1838,"ha":1838,"o":"m 1496 41 q 1545 -3 1546 -45 q 1547 -87 1514 -120 q 1482 -153 1424 -174 q 1366 -196 1298 -200 q 1210 -205 1124 -191 q 1038 -177 956 -151 q 873 -125 796 -90 q 718 -55 647 -17 q 565 -78 468 -114 q 372 -149 254 -149 q 201 -149 151 -136 q 101 -123 60 -100 q 18 -78 -12 -47 q -42 -16 -55 20 q -69 58 -61 101 q -53 144 -23 180 q 7 217 58 241 q 110 265 183 265 q 218 265 258 252 q 298 240 343 220 q 388 199 438 172 q 488 146 545 117 q 588 167 630 224 q 671 281 711 343 q 649 358 592 379 q 534 400 486 428 q 438 457 402 492 q 366 527 348 569 q 330 611 336 654 q 341 697 370 732 q 399 766 450 788 q 502 810 575 811 q 623 811 668 796 q 712 781 738 758 q 765 736 764 709 q 764 682 722 660 q 711 679 696 690 q 682 701 666 706 q 651 712 636 713 q 620 714 608 713 q 578 711 551 698 q 524 684 506 664 q 487 643 480 618 q 472 593 481 569 q 493 538 518 512 q 543 485 578 464 q 613 442 656 426 q 698 409 745 398 q 789 469 828 541 q 868 613 905 682 q 928 725 960 777 q 993 829 1034 882 q 1075 935 1125 985 q 1175 1035 1234 1074 q 1293 1112 1360 1135 q 1427 1158 1502 1157 q 1565 1156 1614 1144 q 1662 1131 1698 1109 q 1733 1087 1756 1056 q 1778 1026 1790 989 q 1819 900 1800 815 q 1781 730 1727 655 q 1673 580 1590 517 q 1508 454 1409 408 q 1310 363 1201 338 q 1092 312 986 312 q 974 312 960 312 q 947 312 935 313 q 886 237 832 167 q 777 97 714 39 q 772 15 836 -6 q 901 -27 971 -42 q 1041 -57 1118 -64 q 1194 -72 1277 -69 q 1311 -68 1350 -60 q 1388 -53 1420 -39 q 1453 -25 1474 -5 q 1496 15 1496 41 z m 1496 1083 q 1445 1078 1400 1046 q 1355 1014 1313 962 q 1271 911 1230 844 q 1190 776 1149 699 q 1108 622 1064 539 q 1020 456 972 374 q 1081 376 1174 400 q 1267 424 1342 464 q 1417 504 1472 559 q 1528 614 1562 678 q 1595 743 1605 814 q 1615 886 1600 961 q 1595 983 1587 1006 q 1579 1028 1566 1046 q 1553 1064 1536 1074 q 1518 1085 1496 1083 z m 227 -78 q 294 -80 362 -41 q 430 -2 497 66 q 442 97 392 125 q 342 153 298 174 q 255 194 218 204 q 182 215 153 212 q 122 209 100 190 q 79 170 68 142 q 56 115 55 84 q 54 53 64 27 q 71 6 89 -12 q 107 -31 130 -46 q 153 -60 178 -68 q 204 -77 227 -78 z"},"3":{"x_min":0,"x_max":813,"ha":813,"o":""},"J":{"x_min":0,"x_max":1782,"ha":1782,"o":"m 567 -254 q 710 -254 830 -208 q 949 -162 1046 -85 q 1144 -8 1221 92 q 1298 191 1356 298 q 1415 406 1456 513 q 1496 620 1521 712 q 1546 803 1556 871 q 1567 939 1565 968 q 1563 995 1557 1014 q 1551 1034 1538 1046 q 1524 1058 1502 1062 q 1480 1067 1446 1064 q 1338 1057 1236 1024 q 1133 991 1044 944 q 955 896 884 838 q 812 781 766 724 q 719 666 702 615 q 686 564 707 529 q 734 485 780 466 q 825 447 880 447 q 935 447 994 465 q 1054 483 1108 512 q 1163 541 1209 580 q 1255 619 1282 662 q 1285 610 1263 558 q 1241 507 1198 465 q 1155 423 1093 395 q 1031 367 954 362 q 900 359 846 368 q 792 378 746 398 q 700 418 666 448 q 631 477 618 515 q 595 582 612 652 q 628 722 676 788 q 725 855 802 915 q 878 975 976 1022 q 1073 1070 1188 1102 q 1302 1135 1426 1147 q 1465 1150 1512 1142 q 1558 1135 1602 1116 q 1645 1096 1680 1064 q 1716 1033 1733 988 q 1749 945 1748 866 q 1748 786 1729 686 q 1710 586 1670 472 q 1630 359 1568 247 q 1505 135 1418 32 q 1331 -71 1216 -150 q 1102 -228 960 -275 q 817 -322 643 -322 q 568 -322 495 -308 q 422 -295 354 -270 q 287 -246 228 -212 q 168 -179 122 -139 q 75 -99 44 -54 q 13 -10 1 37 q -17 112 8 184 q 33 255 98 309 q 162 363 264 392 q 365 421 500 411 q 606 403 694 378 q 781 352 840 314 q 899 275 926 227 q 953 179 937 125 q 933 112 922 97 q 912 82 895 69 q 878 56 854 48 q 829 39 798 39 q 813 150 734 218 q 656 286 490 297 q 408 303 336 285 q 263 267 209 233 q 155 199 125 152 q 95 105 97 52 q 99 -1 138 -55 q 178 -109 243 -154 q 308 -198 392 -226 q 476 -254 567 -254 z"},"V":{"x_min":0,"x_max":1584,"ha":1584,"o":"m 2664 1274 q 2607 1273 2526 1240 q 2445 1206 2350 1148 q 2255 1090 2150 1012 q 2044 933 1936 842 q 1828 751 1722 652 q 1617 553 1522 454 q 1427 355 1347 260 q 1267 166 1210 84 q 1153 1 1124 -64 q 1094 -130 1100 -170 q 1028 -170 982 -148 q 936 -126 909 -98 q 882 -69 870 -42 q 857 -15 852 -3 q 834 47 839 110 q 844 174 866 246 q 887 317 920 394 q 952 470 989 545 q 1026 620 1063 690 q 1100 761 1128 822 q 1157 882 1174 928 q 1191 975 1188 1003 q 1187 1021 1180 1032 q 1172 1042 1156 1048 q 1139 1053 1112 1054 q 1084 1055 1043 1054 q 957 1051 861 1035 q 765 1019 666 994 q 568 970 472 937 q 375 904 288 866 q 201 828 128 786 q 54 744 2 702 q -50 659 -76 616 q -103 574 -97 535 q -92 497 -66 469 q -40 441 0 421 q 41 401 93 388 q 145 375 201 368 q 257 362 314 360 q 371 358 422 360 q 473 362 514 367 q 556 372 582 379 q 567 348 540 331 q 513 314 482 306 q 451 299 422 298 q 393 297 374 298 q 317 300 254 308 q 191 317 130 331 q 69 345 13 366 q -43 387 -88 414 q -132 441 -162 474 q -191 508 -199 549 q -211 610 -181 668 q -151 726 -90 780 q -28 833 59 881 q 146 929 248 970 q 349 1010 459 1043 q 569 1076 676 1099 q 784 1122 883 1134 q 982 1147 1062 1147 q 1115 1147 1162 1130 q 1208 1114 1244 1088 q 1280 1063 1304 1032 q 1327 1001 1334 971 q 1345 929 1337 876 q 1329 822 1310 760 q 1290 699 1262 632 q 1234 565 1204 498 q 1173 431 1144 366 q 1116 301 1096 242 q 1075 184 1066 134 q 1057 85 1066 49 q 1070 78 1103 130 q 1136 182 1190 250 q 1244 318 1316 398 q 1388 479 1472 564 q 1555 650 1646 738 q 1738 825 1830 906 q 1922 988 2012 1061 q 2102 1134 2182 1191 q 2263 1248 2331 1286 q 2399 1323 2448 1334 q 2472 1340 2501 1339 q 2530 1338 2560 1330 q 2589 1323 2616 1309 q 2643 1295 2664 1274 z"},"7":{"x_min":0,"x_max":813,"ha":813,"o":""},"S":{"x_min":0,"x_max":1198,"ha":1198,"o":"m 1129 1107 q 1206 1080 1238 1046 q 1271 1012 1272 974 q 1273 935 1250 894 q 1226 852 1191 810 q 1156 768 1116 726 q 1075 685 1044 648 q 1012 610 996 577 q 979 544 990 519 q 940 543 918 572 q 895 600 892 632 q 890 663 904 696 q 917 730 940 765 q 963 800 992 836 q 1020 871 1048 905 q 1054 922 1056 940 q 1057 957 1050 970 q 1042 982 1022 988 q 1002 995 966 989 q 934 984 875 962 q 816 941 743 908 q 670 874 590 830 q 510 786 436 736 q 361 687 300 633 q 239 579 204 525 q 192 505 174 481 q 156 457 148 435 q 140 413 148 396 q 156 379 196 375 q 234 374 288 376 q 342 378 405 381 q 468 384 536 386 q 605 389 672 387 q 739 385 802 378 q 864 372 915 356 q 966 341 1002 316 q 1039 291 1054 253 q 1073 206 1058 159 q 1042 112 1002 68 q 963 25 904 -12 q 845 -50 776 -80 q 707 -109 634 -128 q 561 -147 493 -153 q 409 -160 334 -152 q 259 -143 200 -124 q 142 -104 103 -74 q 64 -45 51 -10 q 41 14 44 38 q 46 63 60 84 q 75 104 102 118 q 129 132 168 137 q 165 93 176 52 q 188 12 215 -18 q 242 -49 286 -68 q 331 -86 395 -85 q 511 -84 611 -56 q 711 -28 783 16 q 855 61 892 117 q 930 173 920 232 q 915 263 876 275 q 838 287 778 289 q 717 291 640 286 q 564 280 482 276 q 401 272 320 272 q 240 272 172 284 q 105 297 55 326 q 5 355 -15 407 q -36 463 -22 521 q -8 579 32 636 q 72 692 134 747 q 196 802 270 852 q 344 901 426 944 q 508 986 588 1020 q 668 1053 742 1076 q 816 1098 874 1107 q 947 1109 1014 1086 q 1082 1062 1127 1027 q 1144 1071 1129 1107 z"},"}":{"x_min":0,"x_max":448,"ha":448,"o":"m 58 -29 q 51 38 61 90 q 71 141 90 178 q 110 216 136 241 q 161 266 187 282 q 213 298 235 306 q 257 313 270 315 q 259 321 241 332 q 223 343 206 362 q 190 381 178 410 q 166 440 168 484 q 169 527 188 586 q 206 646 250 725 q 256 734 258 750 q 261 766 258 783 q 256 800 247 816 q 238 831 222 840 l 268 840 q 314 840 341 817 q 368 794 379 761 q 390 728 386 692 q 382 656 366 630 q 331 569 308 528 q 285 486 272 458 q 260 429 258 410 q 255 392 261 377 q 267 362 280 348 q 293 334 313 315 q 286 297 265 274 q 244 252 229 214 q 214 175 207 115 q 200 55 202 -38 q 202 -71 190 -100 q 179 -129 158 -150 q 137 -171 108 -184 q 79 -196 44 -196 l -43 -196 q -24 -195 -5 -175 q 14 -155 28 -128 q 43 -101 51 -74 q 59 -46 58 -29 z"},"Z":{"x_min":0,"x_max":1589,"ha":1589,"o":"m 236 -189 q 235 -188 232 -188 q 169 -175 124 -148 q 80 -122 56 -87 q 32 -52 30 -12 q 29 29 51 68 q 80 119 148 172 q 215 226 309 282 q 403 337 516 394 q 630 451 751 508 q 872 565 994 622 q 1117 678 1228 732 q 1339 787 1432 839 q 1526 891 1590 940 q 1546 915 1480 912 q 1415 908 1334 916 q 1252 923 1157 937 q 1062 951 960 962 q 858 972 752 973 q 645 974 540 957 q 471 945 422 920 q 372 895 345 862 q 318 829 314 790 q 310 752 331 713 q 290 711 262 722 q 235 734 218 751 q 201 768 193 787 q 185 806 184 821 q 181 880 210 926 q 238 972 290 1004 q 341 1036 410 1052 q 480 1069 559 1070 q 662 1071 768 1060 q 875 1049 982 1036 q 1090 1022 1198 1010 q 1305 999 1410 999 q 1445 999 1486 1001 q 1528 1003 1568 1010 q 1607 1016 1640 1028 q 1674 1039 1694 1059 q 1704 1090 1691 1115 q 1721 1100 1738 1070 q 1754 1039 1756 1002 q 1757 965 1743 926 q 1729 887 1697 856 q 1657 817 1576 769 q 1496 721 1391 666 q 1286 612 1164 552 q 1043 491 920 428 q 796 364 680 298 q 563 233 468 168 q 374 102 310 38 q 245 -25 226 -84 q 338 -29 464 5 q 589 39 715 53 q 841 67 962 63 q 1082 59 1184 38 q 1285 17 1362 -19 q 1438 -55 1476 -104 q 1496 -131 1495 -160 q 1494 -188 1478 -212 q 1463 -237 1437 -256 q 1411 -274 1382 -280 q 1388 -242 1372 -212 q 1355 -182 1326 -160 q 1296 -138 1260 -123 q 1223 -108 1190 -99 q 1120 -79 1030 -68 q 941 -56 846 -53 q 750 -50 654 -56 q 559 -62 476 -78 q 394 -94 330 -120 q 267 -147 235 -185 l 236 -189 z"},"x":{"x_min":0,"x_max":668,"ha":668,"o":"m 548 569 q 581 537 590 510 q 599 484 593 464 q 587 443 572 428 q 556 412 540 402 q 519 387 497 372 q 475 358 451 342 q 427 326 399 309 q 371 292 337 273 q 348 222 362 174 q 377 125 396 99 q 407 84 422 84 q 438 85 454 94 q 470 102 484 114 q 497 126 505 134 q 526 153 550 180 q 574 206 603 244 l 701 362 q 699 356 699 344 q 699 333 694 316 q 690 299 680 276 q 669 254 647 225 q 614 186 588 156 q 563 125 540 101 q 529 90 511 71 q 493 52 470 34 q 446 16 420 4 q 394 -9 367 -9 q 330 -9 304 9 q 278 27 260 56 q 241 84 228 120 q 216 157 206 195 q 166 169 130 144 q 93 120 60 93 q 27 66 -3 36 q -33 5 -61 -32 q -81 -6 -82 17 q -83 40 -74 58 q -64 77 -49 92 q -34 106 -22 116 q 26 151 82 186 q 137 221 194 254 q 185 301 180 344 q 176 387 173 419 q 171 434 168 438 q 166 442 161 438 q 156 434 148 423 q 141 412 129 398 l -16 230 l -64 174 q -67 181 -70 188 q -73 194 -75 201 q -77 208 -76 216 q -76 225 -71 237 l -57 254 l 92 438 l 118 471 q 129 485 136 494 q 143 502 154 502 q 176 502 204 492 q 231 481 256 463 q 281 445 299 420 q 317 396 321 369 l 326 333 q 363 358 404 388 q 446 417 480 448 q 514 479 534 510 q 554 541 548 569 z"},"_":{"x_min":0,"x_max":1166,"ha":1166,"o":"m -2 -30 l 1228 -30 l 1215 -80 l -15 -80 z"},"v":{"x_min":0,"x_max":602,"ha":602,"o":"m 45 2 q 18 3 -3 12 q -24 21 -37 36 q -50 50 -55 66 q -60 83 -56 99 q -50 127 -42 162 q -33 196 -23 233 q -13 270 -2 306 q 8 341 16 370 q 25 400 31 420 q 37 441 39 448 q 45 468 48 478 q 50 489 45 501 q 45 502 62 492 q 80 481 102 465 q 125 449 146 430 q 166 412 171 397 q 176 383 177 364 q 178 344 163 316 q 163 316 158 302 q 152 289 142 268 q 133 247 122 222 q 111 196 100 172 q 90 147 82 127 q 73 107 69 97 q 67 91 65 84 q 63 78 63 73 q 63 68 66 65 q 68 62 74 62 q 110 65 152 90 q 193 114 232 152 q 194 190 187 250 q 180 310 206 375 q 214 396 230 420 q 247 444 270 464 q 294 484 324 496 q 353 509 388 508 q 410 507 431 500 q 452 493 469 482 q 486 470 498 454 q 510 439 514 422 q 520 389 513 354 q 506 318 488 283 q 470 248 443 214 q 416 180 382 149 q 398 149 418 154 q 438 159 468 180 q 498 202 540 246 q 583 291 644 371 q 642 365 642 354 q 642 342 638 325 q 633 308 622 286 q 612 263 590 234 l 585 227 q 564 202 540 180 q 517 158 490 142 q 464 125 434 115 q 405 105 371 104 q 351 103 331 106 q 265 58 191 29 q 117 0 45 2 z m 291 322 q 282 291 280 262 q 278 232 285 208 q 312 239 334 272 q 356 305 371 336 q 386 368 394 396 q 401 423 398 443 q 394 476 380 476 q 367 476 350 455 q 334 434 318 398 q 301 362 291 322 z"},"O":{"x_min":0,"x_max":1211,"ha":1211,"o":"m 42 66 q 24 117 29 176 q 34 236 56 298 q 78 359 114 420 q 150 482 193 537 q 158 640 176 744 q 194 847 264 934 q 334 1020 456 1079 q 577 1138 750 1152 q 810 1157 873 1143 q 936 1129 1005 1105 q 1094 1074 1150 1026 q 1206 977 1235 898 q 1266 813 1254 714 q 1243 615 1200 513 q 1157 411 1088 312 q 1020 214 936 130 q 978 122 1022 116 q 1067 109 1117 104 q 1066 96 1013 94 q 960 93 903 98 q 846 46 786 2 q 726 -41 664 -72 q 603 -103 542 -120 q 482 -137 424 -137 q 355 -137 294 -123 q 232 -109 182 -84 q 132 -58 96 -20 q 60 18 42 66 z m 873 1071 q 781 1077 692 1046 q 602 1014 530 958 q 457 903 407 832 q 357 760 343 688 q 398 733 446 752 q 480 766 512 772 q 545 779 578 776 q 610 774 644 762 q 677 750 714 729 q 676 729 634 710 q 592 691 548 658 q 505 626 462 582 q 418 538 379 487 q 403 439 436 394 q 470 350 516 311 q 562 272 622 238 q 682 205 757 178 q 812 240 859 310 q 906 381 944 454 q 982 527 1010 600 q 1037 672 1052 738 q 1068 803 1070 859 q 1073 915 1060 955 q 1052 979 1039 999 q 1026 1019 1004 1034 q 982 1049 950 1058 q 919 1068 873 1071 z m 291 -63 q 348 -67 404 -54 q 459 -41 512 -15 q 565 11 615 48 q 665 86 711 132 l 688 138 q 555 174 458 233 q 360 292 295 365 q 249 289 219 214 q 189 139 184 79 q 179 19 204 -20 q 228 -59 291 -63 z"},"C":{"x_min":0,"x_max":1224,"ha":1224,"o":"m 1159 1107 q 1236 1080 1268 1046 q 1301 1012 1302 974 q 1304 935 1280 894 q 1256 852 1221 810 q 1186 768 1146 726 q 1106 685 1074 648 q 1043 610 1026 577 q 1009 544 1021 519 q 971 543 948 572 q 925 601 923 633 q 921 665 936 700 q 950 734 974 770 q 998 805 1027 840 q 1056 876 1083 911 q 1087 936 1084 956 q 1080 977 1062 990 q 1044 1004 1010 1009 q 975 1014 917 1008 q 859 1002 794 974 q 728 947 660 904 q 592 860 526 803 q 459 746 400 681 q 340 616 290 545 q 240 474 206 402 q 172 330 156 260 q 141 191 150 128 q 169 -1 248 -62 q 326 -124 472 -128 q 542 -130 610 -114 q 679 -99 742 -72 q 806 -44 864 -8 q 922 27 971 64 q 1020 102 1058 138 q 1097 173 1122 201 q 1133 212 1142 224 q 1150 235 1158 244 q 1184 273 1208 303 q 1231 333 1255 362 q 1254 356 1254 344 q 1254 333 1250 316 q 1247 299 1236 276 q 1225 253 1203 225 q 1167 180 1121 132 q 1075 84 1020 38 q 966 -7 904 -48 q 841 -88 773 -118 q 705 -149 631 -167 q 557 -185 480 -185 q 353 -185 266 -159 q 178 -133 120 -88 q 61 -44 27 16 q -7 75 -26 141 q -49 220 -41 304 q -33 388 0 472 q 33 555 88 635 q 142 715 212 787 q 282 859 364 920 q 446 980 534 1024 q 621 1068 712 1093 q 802 1118 888 1119 q 981 1123 1048 1094 q 1116 1065 1154 1018 q 1165 1043 1168 1065 q 1170 1087 1159 1107 z"},"W":{"x_min":0,"x_max":1990,"ha":1990,"o":"m 625 341 q 611 309 584 292 q 556 274 524 266 q 493 258 462 257 q 432 256 413 257 q 353 259 288 268 q 222 276 158 291 q 93 306 34 328 q -25 350 -72 378 q -120 406 -152 442 q -184 477 -194 519 q -209 582 -182 643 q -154 704 -95 760 q -36 816 48 867 q 133 918 233 961 q 333 1004 442 1039 q 551 1074 659 1098 q 767 1123 868 1136 q 968 1149 1051 1149 q 1106 1149 1156 1132 q 1205 1115 1244 1088 q 1283 1062 1308 1029 q 1334 996 1343 965 q 1358 914 1360 869 q 1361 824 1346 776 q 1332 728 1300 673 q 1269 618 1217 547 q 1154 461 1098 382 q 1041 302 998 235 q 954 168 928 116 q 901 64 899 32 q 955 106 1030 198 q 1106 289 1194 381 q 1281 473 1378 557 q 1474 641 1572 700 q 1590 710 1618 698 q 1646 687 1672 666 q 1698 645 1714 622 q 1731 599 1726 587 q 1701 541 1671 498 q 1641 454 1611 412 q 1581 369 1554 326 q 1526 284 1506 241 q 1486 198 1476 154 q 1467 109 1474 61 q 1515 142 1590 244 q 1664 347 1762 459 q 1859 571 1974 686 q 2089 801 2209 908 q 2329 1016 2449 1109 q 2569 1202 2678 1269 q 2721 1296 2774 1315 q 2826 1334 2879 1338 q 2932 1341 2982 1327 q 3032 1313 3071 1274 q 3013 1268 2930 1230 q 2848 1192 2750 1131 q 2653 1070 2544 990 q 2436 910 2326 820 q 2217 729 2110 632 q 2004 534 1910 439 q 1817 344 1740 254 q 1663 165 1613 90 q 1563 14 1544 -42 q 1524 -99 1545 -129 q 1486 -120 1434 -102 q 1382 -83 1343 -54 q 1304 -24 1282 18 q 1260 61 1262 118 q 1263 160 1278 202 q 1293 244 1316 286 q 1340 327 1370 368 q 1399 410 1430 451 q 1441 465 1448 474 q 1456 484 1456 486 q 1457 489 1450 484 q 1442 479 1422 466 q 1403 453 1370 423 q 1336 393 1295 352 q 1254 310 1208 260 q 1163 210 1119 156 q 1075 103 1036 49 q 998 -5 970 -54 q 942 -103 929 -144 q 916 -185 924 -213 q 857 -196 808 -165 q 759 -134 728 -98 q 698 -62 686 -24 q 673 14 679 46 q 688 95 716 157 q 743 219 782 288 q 820 356 866 429 q 913 502 960 572 q 1006 643 1050 710 q 1093 776 1126 832 q 1158 888 1176 931 q 1194 974 1191 999 q 1189 1017 1180 1028 q 1172 1039 1154 1045 q 1137 1051 1108 1052 q 1079 1053 1035 1052 q 946 1048 848 1032 q 751 1015 654 988 q 556 962 461 928 q 366 893 282 852 q 198 812 128 768 q 57 724 8 678 q -42 633 -66 589 q -91 545 -84 504 q -76 452 -30 417 q 17 382 84 360 q 151 339 231 330 q 311 321 387 320 q 463 320 526 326 q 590 332 625 341 z"},"A":{"x_min":0,"x_max":2044,"ha":2044,"o":"m 800 290 q 789 324 825 344 q 861 365 929 376 q 997 386 1089 388 q 1181 391 1283 390 q 1363 474 1437 562 q 1511 649 1577 732 q 1643 815 1700 890 q 1757 966 1803 1025 q 1822 1047 1830 1062 q 1838 1078 1830 1087 q 1822 1096 1795 1099 q 1768 1102 1719 1099 q 1599 1092 1468 1070 q 1337 1047 1212 1015 q 1086 983 973 943 q 860 903 775 860 q 690 816 640 772 q 591 729 593 689 q 593 660 617 638 q 641 617 682 601 q 723 585 776 574 q 829 564 888 558 q 946 551 1006 549 q 1067 547 1121 548 q 1175 549 1220 552 q 1264 556 1292 561 q 1272 537 1241 524 q 1210 512 1177 506 q 1144 500 1113 500 q 1082 499 1063 499 q 1002 501 937 507 q 872 513 810 524 q 747 535 690 551 q 633 567 590 588 q 546 608 518 634 q 491 660 487 691 q 482 737 516 784 q 549 830 612 874 q 674 918 760 959 q 845 1000 944 1036 q 1044 1071 1152 1100 q 1261 1129 1368 1150 q 1474 1171 1574 1182 q 1675 1194 1759 1194 q 1807 1194 1854 1184 q 1902 1173 1944 1149 q 1982 1128 2002 1102 q 2023 1075 2032 1047 q 2041 1019 2041 990 q 2041 960 2037 933 q 2029 885 2008 827 q 1988 769 1960 704 q 1933 639 1900 569 q 1868 499 1837 429 l 1814 379 q 1872 380 1915 384 q 1958 388 1979 397 q 1974 346 1920 324 q 1866 301 1779 296 q 1754 228 1738 160 q 1722 91 1721 30 q 1720 -31 1736 -80 q 1753 -129 1792 -157 q 1722 -163 1670 -146 q 1617 -130 1581 -101 q 1545 -72 1524 -34 q 1502 4 1494 41 q 1489 60 1492 89 q 1496 118 1505 152 q 1514 187 1528 225 q 1541 263 1557 300 q 1514 302 1470 306 q 1427 309 1383 312 q 1290 218 1190 134 q 1090 51 983 -12 q 876 -75 762 -112 q 649 -150 530 -152 q 436 -154 343 -139 q 250 -124 174 -92 q 97 -61 46 -14 q -6 34 -16 99 q -20 123 -10 146 q -1 170 20 186 q 42 203 75 210 q 108 216 153 206 q 133 172 130 142 q 127 111 136 84 q 149 42 182 10 q 216 -23 265 -46 q 314 -68 375 -78 q 436 -89 504 -87 q 595 -84 686 -51 q 778 -18 868 38 q 959 93 1047 166 q 1135 240 1219 324 q 1154 328 1092 329 q 1031 330 977 327 q 923 324 878 315 q 832 306 800 290 z m 1883 895 q 1837 840 1788 778 q 1738 717 1684 652 q 1631 586 1573 519 q 1515 452 1454 386 q 1490 384 1524 384 q 1559 383 1593 382 l 1620 431 q 1644 479 1678 538 q 1712 596 1748 658 q 1784 720 1820 781 q 1855 842 1883 895 z"},"f":{"x_min":0,"x_max":328,"ha":328,"o":"m 154 122 q 178 148 204 180 q 231 213 257 244 l 355 362 q 353 356 353 344 q 353 333 349 316 q 345 299 334 276 q 324 254 302 225 l 295 218 q 255 162 216 111 q 177 60 136 16 q 96 -27 53 -62 q 10 -96 -38 -118 q -77 -221 -106 -306 q -134 -390 -146 -447 q -155 -441 -174 -430 q -192 -419 -209 -402 q -226 -386 -236 -363 q -246 -340 -240 -310 q -232 -280 -222 -242 q -211 -204 -197 -158 q -201 -159 -206 -159 q -211 -159 -216 -159 q -238 -159 -259 -154 q -280 -148 -294 -138 q -308 -129 -312 -114 q -317 -100 -305 -82 q -241 -110 -178 -102 q -150 -26 -117 67 q -84 160 -47 258 q -10 357 30 456 q 69 555 110 645 q 151 735 192 810 q 234 885 274 935 q 282 946 302 952 q 322 957 346 958 q 371 959 397 957 q 423 955 444 950 q 464 946 476 940 q 488 934 485 928 q 468 923 437 878 q 406 834 366 762 q 327 689 280 595 q 234 501 186 397 q 138 293 91 186 q 44 79 3 -20 q 40 9 78 44 q 115 80 154 122 z"},"Q":{"x_min":0,"x_max":1239,"ha":1239,"o":"m 25 122 q 15 168 26 223 q 37 278 63 336 q 89 394 128 452 q 167 510 212 563 l 206 577 q 193 614 192 648 q 192 681 195 703 q 200 751 224 803 q 247 855 284 905 q 322 955 373 1000 q 424 1046 485 1082 q 546 1117 616 1138 q 687 1160 763 1163 q 817 1165 871 1152 q 925 1138 986 1116 q 1036 1098 1076 1074 q 1116 1050 1146 1022 q 1177 994 1198 964 q 1219 934 1231 905 q 1261 829 1258 744 q 1256 658 1229 570 q 1202 483 1153 396 q 1104 308 1039 230 q 974 151 897 84 q 820 16 737 -33 q 827 -60 922 -91 q 1017 -122 1110 -152 q 1202 -183 1289 -210 q 1376 -238 1451 -259 q 1526 -280 1586 -292 q 1646 -304 1684 -303 q 1661 -341 1622 -358 q 1582 -374 1529 -374 q 1476 -373 1412 -358 q 1347 -343 1275 -318 q 1203 -294 1125 -263 q 1047 -232 968 -199 q 889 -166 810 -134 q 731 -101 656 -75 q 593 -104 530 -119 q 466 -134 406 -132 q 313 -130 246 -110 q 179 -89 134 -56 q 89 -22 63 24 q 37 69 25 122 z m 460 418 q 396 432 353 448 q 314 394 280 338 q 247 281 224 226 q 201 172 190 124 q 178 75 182 36 q 187 -2 208 -26 q 229 -51 272 -57 q 325 -65 378 -56 q 431 -46 484 -24 q 414 -9 358 -7 q 352 -7 340 0 q 328 8 316 18 q 305 28 297 38 q 289 49 291 55 q 341 58 410 46 q 480 35 564 15 q 646 64 722 138 q 798 212 861 299 q 924 386 972 480 q 1019 575 1044 664 q 1069 753 1070 832 q 1071 911 1041 967 q 1028 991 1013 1011 q 998 1031 977 1046 q 956 1061 928 1070 q 899 1078 860 1078 q 806 1078 754 1064 q 701 1049 652 1024 q 604 998 562 966 q 519 933 484 898 q 450 862 425 826 q 400 790 387 759 q 376 735 371 708 q 397 726 421 740 q 445 754 468 762 q 537 787 593 780 q 649 773 710 730 q 677 730 638 713 q 600 696 560 666 q 519 637 478 596 q 437 556 399 509 q 421 461 460 418 z"},"w":{"x_min":0,"x_max":924,"ha":924,"o":"m 369 2 q 341 3 320 12 q 299 21 286 36 q 273 50 268 66 q 263 83 267 99 q 273 129 283 168 q 293 207 304 247 q 299 239 289 225 l 281 218 l 255 182 q 232 153 209 122 q 186 92 160 66 q 134 38 105 20 q 76 3 50 0 q 33 -2 12 4 q -8 11 -25 24 q -42 38 -52 57 q -62 76 -57 99 q -50 126 -40 161 q -30 196 -20 232 q -10 269 0 304 q 11 340 19 370 q 27 400 32 420 q 38 441 40 448 q 46 468 48 478 q 50 489 47 501 q 47 502 56 497 q 65 492 80 484 q 94 475 112 464 q 129 452 145 440 q 161 428 172 416 q 184 404 188 394 q 193 380 191 360 q 189 341 174 313 q 174 313 168 300 q 161 287 151 266 q 141 245 128 220 q 116 195 104 170 q 93 146 84 126 q 74 107 70 97 q 64 80 70 78 q 75 75 84 79 q 94 83 104 90 q 115 98 119 102 q 147 128 180 167 q 212 206 244 244 l 335 354 l 362 448 q 368 468 371 478 q 374 489 369 501 q 369 502 386 492 q 404 481 426 465 q 449 449 470 430 q 490 412 495 397 q 500 383 501 364 q 502 344 486 316 q 486 316 480 302 q 475 289 466 268 q 457 247 446 222 q 434 196 424 172 q 413 147 404 127 q 396 107 392 97 q 390 91 388 84 q 386 78 386 73 q 386 68 388 65 q 391 62 397 62 q 433 65 475 90 q 517 114 556 152 q 537 171 526 196 q 515 221 511 250 q 507 279 512 311 q 516 343 529 375 q 538 396 554 420 q 571 444 594 464 q 617 484 646 496 q 676 509 711 508 q 733 507 754 500 q 775 493 792 482 q 809 470 821 454 q 833 439 837 422 q 843 389 836 354 q 829 318 812 283 q 794 248 766 214 q 739 180 705 149 q 721 149 741 154 q 761 159 791 180 q 821 202 864 246 q 906 291 967 371 q 965 365 965 354 q 965 342 961 325 q 957 308 946 286 q 936 263 914 234 l 908 227 q 887 202 864 180 q 840 158 814 142 q 787 125 758 115 q 728 105 694 104 q 674 103 654 106 q 588 58 514 29 q 440 0 369 2 z m 614 322 q 606 291 604 262 q 601 232 609 208 q 635 239 657 272 q 679 305 694 336 q 709 368 716 396 q 724 423 721 443 q 717 476 704 476 q 690 476 674 455 q 657 434 640 398 q 624 362 614 322 z"},"E":{"x_min":0,"x_max":1225,"ha":1225,"o":"m 1159 1107 q 1236 1080 1268 1046 q 1301 1012 1302 974 q 1304 935 1280 894 q 1256 852 1221 810 q 1186 768 1146 726 q 1106 685 1074 648 q 1043 610 1026 577 q 1009 544 1021 519 q 971 543 948 572 q 925 601 923 633 q 921 665 936 700 q 950 734 974 770 q 998 805 1027 840 q 1056 876 1083 911 q 1087 936 1084 956 q 1080 977 1062 990 q 1044 1004 1010 1009 q 975 1014 917 1008 q 876 1003 824 986 q 771 968 715 940 q 659 912 604 874 q 549 837 503 792 q 457 747 424 696 q 390 645 378 591 q 363 526 378 480 q 394 434 440 412 q 486 389 562 394 q 638 398 745 436 q 752 414 752 398 q 751 382 746 370 q 740 358 730 349 q 721 340 710 334 q 683 318 654 308 q 625 298 581 288 q 508 255 444 224 q 380 193 332 160 q 283 128 254 92 q 226 57 225 16 q 224 -14 238 -40 q 252 -65 282 -82 q 312 -99 359 -108 q 406 -116 471 -113 q 539 -110 606 -93 q 674 -76 738 -50 q 802 -25 860 7 q 919 39 968 73 q 1018 107 1058 140 q 1097 173 1122 201 q 1133 212 1142 224 q 1150 235 1158 244 q 1184 273 1208 303 q 1231 333 1255 362 q 1254 356 1254 344 q 1254 333 1250 316 q 1247 299 1236 276 q 1225 253 1203 225 q 1149 157 1076 88 q 1002 19 910 -39 q 819 -97 711 -136 q 603 -176 480 -185 q 380 -192 298 -180 q 216 -168 157 -142 q 98 -115 65 -78 q 32 -41 30 3 q 29 36 52 72 q 74 109 121 146 q 168 183 240 218 q 312 253 411 282 q 330 297 278 328 q 225 359 194 398 q 163 437 150 480 q 138 522 139 561 q 141 634 177 704 q 213 773 272 834 q 332 896 408 948 q 485 999 568 1036 q 650 1074 733 1096 q 816 1117 888 1119 q 981 1123 1048 1094 q 1116 1065 1154 1018 q 1165 1043 1168 1065 q 1170 1087 1159 1107 z"},"s":{"x_min":0,"x_max":447,"ha":447,"o":"m 375 170 q 349 139 310 106 q 270 72 223 46 q 176 19 124 4 q 72 -11 23 -6 q -34 0 -73 26 q -112 53 -117 102 q -93 92 -75 87 q -57 82 -43 80 q -29 78 -18 79 q -6 80 6 82 q 43 88 61 116 q 79 144 86 183 q 92 222 91 268 q 90 314 90 357 l -16 230 l -64 174 q -67 181 -70 188 q -73 194 -75 201 q -77 208 -76 216 q -76 225 -71 237 l -56 254 l 108 462 l 128 481 l 129 482 q 139 494 151 506 q 163 518 178 528 q 193 538 213 546 q 233 554 259 557 q 273 558 298 548 q 324 538 347 524 q 370 510 385 496 q 400 482 394 476 q 374 480 352 474 q 330 468 310 456 q 291 445 276 432 q 260 418 253 408 q 230 375 226 332 q 223 288 224 244 q 226 201 226 163 q 225 125 208 102 q 227 112 246 125 q 265 138 281 152 q 297 166 310 178 q 323 191 332 199 l 377 244 l 476 362 q 474 356 474 344 q 473 333 469 316 q 465 299 454 276 q 444 254 422 225 z"},"l":{"x_min":0,"x_max":364,"ha":364,"o":"m -60 99 q -54 119 -40 162 q -25 206 -6 263 q 14 320 38 386 q 62 452 86 518 q 109 585 132 648 q 154 710 172 760 q 190 809 201 840 q 212 872 213 877 q 219 896 222 907 q 225 918 220 930 q 220 931 242 918 q 263 906 290 886 q 318 867 342 846 q 367 825 373 810 q 378 796 376 777 q 374 758 360 730 q 282 563 220 428 q 193 371 167 314 q 141 258 120 212 q 99 166 85 135 q 71 104 68 97 q 62 80 69 74 q 76 69 90 70 q 104 72 122 80 q 139 87 153 97 q 170 108 190 125 q 209 142 228 162 q 248 183 266 204 q 285 225 302 244 l 399 362 q 397 356 397 344 q 397 333 393 316 q 389 299 378 276 q 368 254 346 225 l 339 218 l 312 182 q 297 163 270 132 q 242 102 207 72 q 172 43 130 22 q 89 0 46 0 q -23 0 -46 26 q -69 53 -60 99 z"},"8":{"x_min":0,"x_max":813,"ha":813,"o":""},"\\":{"x_min":0,"x_max":505,"ha":505,"o":"m -211 719 q -216 725 -232 742 q -248 760 -272 780 q -296 801 -327 820 q -358 839 -392 848 l -295 848 q -263 848 -228 826 q -192 804 -158 772 q -123 739 -92 702 q -60 665 -35 636 l 549 -65 q 554 -71 570 -88 q 586 -106 610 -126 q 635 -147 666 -166 q 697 -185 732 -194 l 640 -194 q 606 -194 570 -172 q 534 -150 498 -118 q 463 -85 431 -48 q 399 -11 374 18 z"},"e":{"x_min":0,"x_max":440,"ha":440,"o":"m 251 511 q 260 511 279 506 q 298 502 318 494 q 338 487 355 477 q 372 467 375 458 q 388 422 372 380 q 356 339 317 298 q 278 258 220 222 q 162 186 92 162 q 87 141 85 122 q 83 103 86 89 q 90 75 100 66 q 111 58 131 58 q 153 59 176 69 q 200 79 223 94 q 232 100 242 108 q 251 116 267 132 q 283 148 308 174 q 334 201 373 244 l 470 362 q 468 356 468 344 q 468 333 464 316 q 460 299 450 276 q 439 254 418 225 l 410 218 q 368 166 330 124 q 293 83 256 54 q 219 25 182 10 q 144 -5 103 -4 q 67 -3 40 9 q 14 21 -4 42 q -22 63 -32 90 q -41 118 -43 150 q -45 177 -37 214 q -29 251 -12 290 q 4 330 30 368 q 55 407 88 438 q 121 469 162 489 q 202 509 249 511 z m 113 237 q 112 232 108 224 q 149 251 183 281 q 217 311 242 340 q 267 369 281 396 q 295 424 295 446 q 273 435 245 410 q 217 385 190 354 q 164 324 142 292 q 121 261 113 237 z"},"b":{"x_min":0,"x_max":623,"ha":623,"o":"m 229 223 q 230 214 233 196 q 236 177 239 165 q 256 184 274 206 q 291 228 307 251 q 323 274 337 296 q 351 319 360 338 q 370 358 375 379 q 380 400 382 418 q 384 435 382 448 q 381 460 377 463 q 374 466 366 464 q 359 461 350 456 q 342 451 334 444 q 325 438 318 432 q 268 388 246 332 q 225 277 229 223 z m 167 185 q 160 217 163 252 q 149 236 139 223 q 129 210 120 196 q 112 181 103 165 q 94 149 82 127 q 74 103 81 84 q 88 65 111 69 q 125 71 146 85 q 167 99 193 122 q 183 137 176 154 q 170 170 167 185 z m 538 147 q 519 125 496 104 q 474 84 450 68 q 425 53 400 44 q 375 34 352 34 q 320 34 291 42 q 262 22 234 11 q 207 0 185 0 q 151 0 125 10 q 99 19 78 36 q 81 18 77 -2 q 36 -1 7 11 q -22 23 -38 42 q -55 61 -59 86 q -63 110 -53 138 q -47 158 -33 200 q -19 241 0 295 q 20 349 42 412 q 65 475 88 538 q 112 601 134 660 q 155 719 172 766 q 189 812 200 842 q 211 872 212 877 q 218 896 220 907 q 223 918 218 930 q 218 931 240 918 q 261 906 288 886 q 316 867 340 846 q 365 825 371 810 q 376 796 374 777 q 373 758 358 730 q 337 681 312 626 q 291 579 264 520 q 238 460 210 399 q 241 431 274 458 q 306 485 336 499 q 356 508 386 505 q 415 502 444 492 q 473 482 496 466 q 518 450 524 434 q 537 396 526 350 q 515 304 488 256 q 461 208 422 162 q 383 117 341 81 l 344 81 q 379 81 415 106 q 451 130 486 166 q 506 186 524 206 q 541 226 558 244 l 655 362 q 653 356 653 344 q 653 333 649 316 q 645 299 634 276 q 624 254 603 225 l 595 218 l 569 182 z"},"m":{"x_min":0,"x_max":928,"ha":928,"o":"m 341 392 q 349 412 347 418 q 345 425 337 423 q 329 421 318 414 q 308 406 300 398 q 290 389 271 371 q 252 353 228 328 q 203 302 176 270 q 150 238 127 202 q 104 165 86 126 q 68 86 61 45 l 61 44 q 63 31 68 20 q 72 9 81 -1 q 57 -1 30 4 q 3 8 -20 20 q -42 31 -56 50 q -69 68 -66 96 q -65 116 -57 146 q -49 175 -39 208 q -29 240 -18 272 q -6 303 3 328 l 50 446 q 56 466 53 478 q 50 489 47 501 q 47 502 66 491 q 85 480 110 464 q 134 447 156 428 q 179 409 184 394 q 189 383 190 370 q 192 356 186 337 q 211 369 226 391 q 242 413 261 432 q 287 461 314 479 q 342 497 370 500 q 386 502 412 492 q 437 483 461 466 q 485 450 500 428 q 516 407 511 384 q 509 373 506 362 q 502 350 495 338 q 521 369 537 391 q 553 413 571 432 q 597 461 625 479 q 653 497 679 500 q 695 502 721 492 q 747 483 770 466 q 794 450 810 428 q 825 407 820 384 q 816 356 799 322 q 782 287 761 250 q 740 212 719 173 q 698 134 686 97 q 681 80 686 77 q 692 74 702 78 q 711 83 721 90 q 731 98 735 102 q 763 128 796 167 q 828 206 860 244 l 957 362 q 955 356 955 344 q 955 333 951 316 q 947 299 936 276 q 926 254 905 225 l 897 218 l 871 182 q 848 153 825 122 q 802 92 776 66 q 750 38 721 20 q 692 3 666 0 q 649 -2 628 4 q 607 10 590 23 q 572 36 561 54 q 550 73 554 96 q 557 116 564 146 q 572 175 582 207 q 593 239 604 271 q 616 303 625 328 l 651 392 q 660 412 658 418 q 656 425 648 423 q 641 421 630 414 q 619 406 610 398 q 600 389 580 370 q 559 352 534 325 q 509 298 482 265 q 455 232 432 196 q 409 159 392 120 q 376 81 372 42 q 374 31 378 20 q 382 9 389 -1 q 365 -1 338 4 q 312 8 290 20 q 267 31 254 50 q 241 68 244 96 q 246 116 254 146 q 261 175 272 208 q 282 240 294 272 q 305 303 314 328 z"},"n":{"x_min":0,"x_max":613,"ha":613,"o":"m 242 96 q 245 116 253 146 q 261 175 272 207 q 282 239 293 271 q 304 303 314 328 q 321 347 328 362 q 334 378 340 392 q 348 412 346 418 q 344 425 336 423 q 329 421 318 414 q 308 406 299 398 q 289 389 268 370 q 248 352 223 326 q 198 299 171 266 q 144 233 122 196 q 99 160 82 121 q 66 82 62 43 q 65 15 81 -1 q 57 -1 30 4 q 3 8 -20 20 q -42 31 -56 50 q -69 68 -66 96 q -65 116 -57 146 q -49 175 -39 208 q -29 240 -18 272 q -6 303 3 328 l 50 446 q 56 466 53 478 q 50 489 47 501 q 47 502 66 491 q 85 480 110 464 q 134 447 156 428 q 179 409 184 394 q 189 383 190 370 q 192 356 185 339 q 210 370 226 392 q 242 413 259 432 q 287 461 314 479 q 340 497 368 500 q 384 502 410 492 q 437 483 460 466 q 484 450 500 428 q 515 407 510 384 q 506 356 488 322 q 471 287 450 250 q 429 212 408 173 q 387 134 376 97 q 371 80 376 77 q 381 74 390 78 q 400 83 410 90 q 420 98 424 102 q 452 128 484 167 q 516 206 548 244 l 646 362 q 645 356 645 344 q 645 333 640 316 q 636 299 626 276 q 615 254 593 225 l 586 218 l 559 182 q 536 153 513 122 q 490 92 465 66 q 438 38 410 20 q 382 3 356 0 q 339 -2 318 4 q 296 10 278 23 q 260 36 250 54 q 239 73 242 96 z"},"h":{"x_min":0,"x_max":620,"ha":620,"o":"m 252 96 q 255 116 262 146 q 270 175 280 207 q 290 239 302 271 q 313 303 322 328 q 330 347 336 362 q 343 378 348 392 q 357 412 355 418 q 353 425 346 423 q 338 421 327 414 q 316 406 307 398 q 294 387 263 358 q 232 328 198 288 q 163 247 131 198 q 99 148 83 96 q 73 58 71 32 q 69 6 77 -5 q 36 -3 7 9 q -22 21 -38 40 q -55 60 -59 85 q -63 110 -53 138 q -47 158 -33 200 q -19 241 0 295 q 19 349 42 412 q 65 475 88 538 q 111 601 132 660 q 154 719 171 766 q 188 812 199 842 q 210 872 211 877 q 216 896 219 907 q 222 918 218 930 q 218 931 240 918 q 261 906 288 886 q 315 867 340 846 q 364 825 370 810 q 375 796 374 777 q 372 758 357 730 q 351 724 338 702 q 325 680 308 646 q 290 612 269 568 q 248 525 226 476 q 205 428 184 376 q 162 325 143 276 l 147 283 q 172 311 190 333 q 207 355 220 373 q 234 391 246 405 q 257 419 269 432 q 295 461 322 479 q 350 497 377 500 q 393 502 419 492 q 445 483 468 466 q 492 450 508 428 q 523 407 518 384 q 514 356 497 322 q 480 287 458 250 q 437 212 416 173 q 396 134 384 97 q 379 80 384 77 q 390 74 399 78 q 408 83 418 90 q 428 98 432 102 q 460 128 492 167 q 525 206 558 244 l 655 362 q 653 356 653 344 q 653 333 649 316 q 645 299 634 276 q 624 254 603 225 l 595 218 l 569 182 q 546 153 522 122 q 499 92 473 66 q 447 38 418 20 q 390 3 364 0 q 347 -2 326 4 q 305 10 288 23 q 270 36 259 54 q 248 73 252 96 z"},"z":{"x_min":0,"x_max":490,"ha":490,"o":"m -119 -354 q -147 -382 -156 -396 q -165 -411 -163 -416 q -161 -422 -150 -420 q -139 -419 -126 -415 q -114 -411 -103 -406 q -92 -401 -89 -399 q -62 -383 -28 -354 q 7 -326 40 -290 q 73 -255 100 -215 q 126 -175 136 -135 q 73 -188 9 -240 q -55 -291 -119 -354 z m 256 408 q 233 368 233 323 q 233 278 238 232 q 243 187 243 145 q 243 103 220 69 q 203 42 176 26 q 186 21 195 16 q 204 10 215 2 l 218 6 q 245 35 270 62 q 294 90 319 118 q 344 146 370 177 q 396 208 426 244 l 525 362 q 523 356 523 344 q 523 333 518 316 q 514 299 504 276 q 493 254 471 225 q 433 182 404 147 q 375 112 350 83 q 326 54 304 28 q 283 3 262 -20 q 257 -23 255 -26 q 253 -30 249 -34 q 270 -72 263 -132 q 256 -192 222 -256 q 187 -320 123 -378 q 59 -435 -34 -467 q -49 -472 -75 -475 q -101 -478 -129 -476 q -157 -475 -182 -468 q -206 -462 -218 -448 q -231 -434 -227 -412 q -223 -391 -192 -359 q -153 -318 -111 -282 q -69 -246 -27 -212 q 15 -177 57 -143 q 99 -109 139 -73 q 137 -69 137 -66 q 137 -62 136 -58 q 133 -50 126 -40 q 119 -30 106 -22 q 93 -13 73 -8 q 53 -2 25 -2 l 27 -1 l 25 -1 q -32 5 -70 29 q -109 53 -114 102 q -90 92 -72 87 q -55 82 -41 80 q -27 78 -15 79 q -3 80 9 82 q 46 88 64 116 q 81 144 88 183 q 94 222 93 268 q 92 314 91 357 l -13 230 l -62 174 q -65 181 -68 188 q -71 194 -73 201 q -75 208 -74 216 q -73 225 -68 237 l -54 254 l 110 462 l 129 481 l 132 482 q 152 506 180 528 q 209 550 260 557 q 275 558 300 548 q 326 538 349 524 q 372 510 388 496 q 403 482 397 476 q 377 480 355 474 q 333 468 314 456 q 294 445 278 432 q 263 418 256 408 z"},"B":{"x_min":0,"x_max":1910,"ha":1910,"o":"m 1253 987 q 1252 954 1245 918 q 1238 883 1225 846 q 1250 885 1272 920 q 1295 954 1318 985 q 1341 1016 1366 1044 q 1390 1071 1420 1097 q 1442 1116 1476 1126 q 1511 1135 1551 1134 q 1591 1134 1633 1124 q 1675 1114 1712 1094 q 1749 1074 1778 1044 q 1807 1015 1822 976 q 1845 914 1836 860 q 1826 805 1796 758 q 1766 711 1722 673 q 1677 635 1629 606 q 1581 577 1536 558 q 1490 539 1459 532 q 1497 525 1541 511 q 1585 497 1626 474 q 1666 452 1699 420 q 1732 388 1749 346 q 1777 272 1758 204 q 1738 136 1686 77 q 1633 18 1553 -30 q 1473 -78 1379 -112 q 1285 -146 1184 -164 q 1082 -182 986 -181 q 876 -180 769 -164 q 662 -149 575 -118 q 488 -87 432 -40 q 375 8 366 73 q 363 97 376 120 q 388 144 414 161 q 440 178 479 184 q 518 191 570 181 q 545 146 540 116 q 534 85 543 57 q 557 15 594 -18 q 632 -50 687 -72 q 742 -95 812 -106 q 882 -117 961 -115 q 1050 -113 1132 -92 q 1215 -72 1285 -36 q 1355 -1 1408 46 q 1462 93 1494 148 q 1526 203 1534 262 q 1541 322 1518 383 q 1508 407 1485 430 q 1462 452 1430 467 q 1397 482 1356 486 q 1316 491 1273 479 l 1174 569 q 1227 579 1282 597 q 1337 615 1387 640 q 1437 666 1480 698 q 1523 729 1552 766 q 1582 804 1596 846 q 1609 889 1601 936 q 1587 1014 1566 1030 q 1544 1047 1503 1007 q 1426 937 1350 849 q 1275 761 1204 665 q 1134 569 1070 469 q 1005 369 948 275 q 929 228 918 184 q 907 140 908 100 q 908 60 921 26 q 934 -8 964 -36 q 913 -33 874 -17 q 834 -1 805 22 q 776 46 757 73 q 738 100 728 124 q 709 175 716 234 q 722 293 746 357 q 770 421 806 487 q 843 553 884 618 q 925 682 966 742 q 1008 803 1040 855 q 1072 907 1092 949 q 1111 991 1109 1019 q 1108 1037 1100 1048 q 1093 1058 1076 1064 q 1060 1069 1032 1070 q 1005 1071 964 1070 q 878 1067 788 1049 q 697 1031 608 1003 q 519 975 434 938 q 350 900 276 858 q 201 815 139 769 q 77 723 34 677 q -10 631 -32 586 q -54 542 -49 503 q -45 465 -19 436 q 7 408 47 388 q 87 367 139 353 q 191 339 247 331 q 303 323 360 320 q 417 318 468 319 q 519 320 560 324 q 602 329 627 336 q 612 305 584 288 q 557 271 526 264 q 496 256 466 255 q 437 254 419 255 q 361 257 299 266 q 237 274 176 288 q 116 302 60 323 q 5 344 -39 371 q -83 398 -112 432 q -141 465 -149 506 q -160 567 -134 628 q -109 688 -56 746 q -3 803 72 856 q 148 910 238 956 q 327 1002 425 1040 q 523 1079 622 1106 q 720 1133 813 1148 q 906 1163 986 1163 q 1039 1163 1084 1146 q 1130 1130 1166 1104 q 1201 1079 1224 1048 q 1246 1017 1253 987 z"},"K":{"x_min":0,"x_max":1606,"ha":1606,"o":"m 1258 987 q 1253 927 1227 854 q 1201 782 1163 702 q 1125 622 1080 538 q 1036 454 995 371 q 1054 437 1128 512 q 1203 586 1286 663 q 1370 740 1460 818 q 1549 895 1638 966 q 1728 1038 1814 1101 q 1901 1164 1978 1214 q 2056 1263 2120 1296 q 2185 1328 2232 1339 q 2256 1345 2285 1344 q 2314 1343 2343 1336 q 2372 1328 2399 1314 q 2426 1300 2447 1279 q 2393 1278 2318 1252 q 2243 1226 2154 1180 q 2065 1133 1965 1070 q 1865 1007 1762 933 q 1659 859 1556 776 q 1454 694 1360 610 q 1265 525 1181 442 q 1097 358 1032 281 q 1066 223 1120 162 q 1175 100 1243 42 q 1311 -15 1390 -66 q 1468 -117 1551 -154 q 1634 -192 1718 -212 q 1803 -233 1882 -230 q 1879 -249 1865 -264 q 1851 -280 1832 -290 q 1812 -301 1790 -307 q 1767 -313 1747 -313 q 1711 -313 1670 -308 q 1628 -304 1589 -291 q 1484 -255 1391 -197 q 1298 -139 1220 -71 q 1141 -3 1079 70 q 1017 143 974 209 q 938 160 912 117 q 885 74 872 37 q 864 -23 876 -73 q 887 -123 926 -158 q 876 -155 838 -138 q 799 -122 772 -99 q 744 -76 725 -49 q 706 -22 695 2 q 671 54 676 120 q 680 186 704 259 q 729 332 768 410 q 808 487 853 562 q 898 638 944 709 q 990 780 1028 840 q 1065 900 1089 946 q 1113 993 1114 1019 q 1113 1037 1106 1048 q 1099 1058 1082 1064 q 1066 1069 1039 1070 q 1012 1071 971 1070 q 856 1065 734 1036 q 613 1007 498 962 q 382 916 280 858 q 178 800 103 738 q 28 677 -14 616 q -55 555 -49 503 q -44 453 -1 418 q 42 384 106 362 q 171 341 249 331 q 327 321 401 319 q 475 317 537 322 q 599 327 633 336 q 619 305 592 288 q 566 271 536 264 q 506 256 476 255 q 447 254 429 255 q 371 257 308 266 q 245 274 183 288 q 121 302 64 323 q 8 344 -37 371 q -82 398 -112 432 q -141 465 -149 506 q -160 567 -134 628 q -107 688 -54 746 q 0 803 76 856 q 152 910 242 956 q 332 1002 430 1040 q 529 1079 628 1106 q 726 1133 820 1148 q 913 1163 993 1163 q 1046 1163 1092 1146 q 1137 1130 1172 1104 q 1207 1079 1230 1048 q 1252 1017 1258 987 z"},"R":{"x_min":0,"x_max":1772,"ha":1772,"o":"m 1181 987 q 1183 943 1174 892 q 1165 841 1148 786 q 1130 730 1108 670 q 1085 611 1060 550 q 1129 647 1178 727 q 1228 807 1270 873 q 1311 939 1350 992 q 1389 1044 1437 1086 q 1470 1115 1520 1124 q 1571 1132 1623 1119 q 1675 1106 1720 1071 q 1764 1036 1786 977 q 1791 962 1794 944 q 1798 926 1800 908 q 1801 889 1802 872 q 1803 854 1803 841 q 1803 724 1746 625 q 1688 526 1587 456 q 1486 385 1348 347 q 1211 309 1051 312 q 1080 253 1132 188 q 1185 124 1254 63 q 1323 2 1404 -53 q 1485 -108 1572 -148 q 1658 -189 1746 -212 q 1834 -234 1917 -230 q 1914 -249 1900 -264 q 1886 -280 1866 -290 q 1847 -301 1824 -307 q 1802 -313 1782 -313 q 1746 -313 1706 -308 q 1665 -302 1624 -291 q 1491 -255 1386 -194 q 1281 -132 1200 -54 q 1120 24 1062 114 q 1003 205 963 299 q 939 227 923 160 q 907 92 906 33 q 905 -26 923 -74 q 941 -123 984 -158 q 933 -155 892 -138 q 852 -122 822 -99 q 791 -76 769 -49 q 747 -22 733 2 q 712 37 704 78 q 697 120 699 166 q 701 212 712 262 q 724 311 742 362 q 653 391 583 439 q 513 487 482 556 q 534 503 608 470 q 682 438 763 420 q 787 483 817 546 q 847 609 878 668 q 908 727 936 781 q 965 835 987 881 q 1009 927 1022 962 q 1034 997 1033 1019 q 1030 1037 1022 1048 q 1013 1058 996 1064 q 979 1069 952 1070 q 924 1071 883 1070 q 769 1065 650 1036 q 532 1007 422 962 q 312 916 217 858 q 122 800 54 738 q -14 677 -48 616 q -82 555 -70 503 q -59 453 -12 418 q 34 384 100 362 q 166 341 244 331 q 322 321 396 319 q 469 317 530 322 q 592 327 625 336 q 613 305 587 288 q 561 271 531 264 q 501 256 472 255 q 443 254 425 255 q 367 257 304 266 q 240 274 178 288 q 116 302 58 323 q 0 344 -47 371 q -94 398 -126 432 q -159 465 -170 506 q -188 567 -169 628 q -150 688 -103 746 q -56 803 14 856 q 84 910 168 956 q 253 1002 347 1040 q 441 1079 536 1106 q 632 1133 724 1148 q 815 1163 895 1163 q 948 1163 996 1146 q 1043 1130 1081 1104 q 1119 1079 1145 1048 q 1171 1017 1181 987 z m 1506 1007 q 1438 945 1374 871 q 1311 797 1250 717 q 1189 637 1130 554 q 1072 472 1014 395 q 1152 396 1255 428 q 1358 461 1430 520 q 1501 580 1542 663 q 1584 746 1599 847 q 1600 856 1602 868 q 1603 879 1604 892 q 1605 904 1605 916 q 1605 928 1604 936 q 1590 1014 1568 1030 q 1547 1047 1506 1007 z"},"T":{"x_min":0,"x_max":1235,"ha":1235,"o":"m 2519 1099 q 2534 1063 2520 1030 q 2507 998 2474 973 q 2441 948 2392 932 q 2344 915 2290 912 q 2206 907 2091 917 q 1976 927 1841 946 q 1706 964 1558 988 q 1410 1013 1261 1036 q 1290 998 1294 960 q 1299 921 1289 881 q 1273 817 1242 746 q 1211 676 1173 602 q 1135 527 1094 452 q 1054 376 1019 303 q 984 230 958 162 q 932 94 924 34 q 915 -25 928 -74 q 941 -124 984 -158 q 933 -155 892 -138 q 852 -122 822 -99 q 791 -76 769 -49 q 747 -22 733 2 q 705 49 708 110 q 710 171 734 240 q 757 309 796 384 q 836 459 882 535 q 929 611 978 684 q 1026 758 1067 825 q 1108 892 1137 950 q 1166 1007 1174 1050 q 1027 1072 887 1089 q 738 1106 606 1084 q 474 1061 364 1014 q 253 966 167 900 q 81 833 24 762 q -33 692 -58 624 q -82 555 -70 503 q -59 453 -12 418 q 34 384 100 362 q 166 341 244 331 q 322 321 396 319 q 469 317 530 322 q 592 327 625 336 q 613 305 587 288 q 561 271 531 264 q 501 256 472 255 q 443 254 425 255 q 367 257 304 266 q 240 274 178 288 q 116 302 58 323 q 0 344 -47 371 q -94 398 -126 432 q -159 465 -170 506 q -194 587 -165 672 q -136 757 -68 836 q 1 916 104 984 q 206 1052 330 1100 q 455 1147 595 1169 q 735 1191 879 1177 q 979 1167 1090 1154 q 1202 1140 1320 1126 q 1437 1111 1557 1096 q 1677 1082 1792 1072 q 1908 1061 2016 1055 q 2124 1049 2218 1051 q 2312 1053 2389 1064 q 2466 1076 2519 1099 z"},"P":{"x_min":0,"x_max":1750,"ha":1750,"o":"m 1181 987 q 1183 943 1174 892 q 1165 841 1148 786 q 1130 730 1108 670 q 1085 611 1060 550 q 1129 647 1178 727 q 1228 807 1270 873 q 1311 939 1350 992 q 1389 1044 1437 1086 q 1470 1115 1520 1124 q 1571 1132 1623 1119 q 1675 1106 1720 1071 q 1764 1036 1786 977 q 1791 962 1794 944 q 1798 926 1800 908 q 1801 889 1802 872 q 1803 854 1803 841 q 1803 758 1774 684 q 1745 611 1692 550 q 1639 488 1564 440 q 1489 392 1397 361 q 1305 330 1198 318 q 1092 306 975 316 l 969 316 q 943 242 926 172 q 908 102 906 40 q 904 -21 922 -72 q 939 -122 984 -158 q 933 -155 892 -138 q 852 -122 822 -99 q 791 -76 769 -49 q 747 -22 733 2 q 712 37 704 78 q 697 120 699 166 q 701 212 712 262 q 724 311 742 362 q 653 391 583 439 q 513 487 482 556 q 534 503 608 470 q 682 438 763 420 q 787 483 817 546 q 847 609 878 668 q 908 727 936 781 q 965 835 987 881 q 1009 927 1022 962 q 1034 997 1033 1019 q 1030 1037 1022 1048 q 1013 1058 996 1064 q 979 1069 952 1070 q 924 1071 883 1070 q 769 1065 650 1036 q 532 1007 422 962 q 312 916 217 858 q 122 800 54 738 q -14 677 -48 616 q -82 555 -70 503 q -59 453 -12 418 q 34 384 100 362 q 166 341 244 331 q 322 321 396 319 q 469 317 530 322 q 592 327 625 336 q 613 305 587 288 q 561 271 531 264 q 501 256 472 255 q 443 254 425 255 q 367 257 304 266 q 240 274 178 288 q 116 302 58 323 q 0 344 -47 371 q -94 398 -126 432 q -159 465 -170 506 q -188 567 -169 628 q -150 688 -103 746 q -56 803 14 856 q 84 910 168 956 q 253 1002 347 1040 q 441 1079 536 1106 q 632 1133 724 1148 q 815 1163 895 1163 q 948 1163 996 1146 q 1043 1130 1081 1104 q 1119 1079 1145 1048 q 1171 1017 1181 987 z m 1506 1007 q 1438 945 1374 871 q 1311 797 1250 717 q 1189 637 1130 554 q 1072 472 1014 395 q 1152 396 1255 428 q 1358 461 1430 520 q 1501 580 1542 663 q 1584 746 1599 847 q 1600 856 1602 868 q 1603 879 1604 892 q 1605 904 1605 916 q 1605 928 1604 936 q 1590 1014 1568 1030 q 1547 1047 1506 1007 z"},"|":{"x_min":0,"x_max":234,"ha":234,"o":"m -133 664 q -135 670 -142 687 q -149 704 -161 725 q -173 746 -190 768 q -207 789 -229 803 l -162 781 q -139 774 -120 750 q -101 725 -85 693 q -69 661 -56 626 q -43 590 -33 562 l 197 -102 q 199 -108 206 -125 q 213 -142 224 -164 q 236 -185 253 -206 q 270 -228 291 -241 q 270 -235 261 -232 q 252 -230 248 -228 q 244 -227 240 -226 q 237 -224 227 -221 q 204 -214 185 -190 q 166 -165 150 -132 q 133 -100 120 -64 q 107 -29 97 -2 z"},"t":{"x_min":0,"x_max":365,"ha":365,"o":"m 899 674 q 872 691 832 700 q 791 710 742 714 q 694 718 640 718 q 587 717 534 714 q 482 711 433 707 q 384 703 346 700 q 342 692 328 664 q 315 635 296 594 q 276 552 252 500 q 228 449 202 396 q 177 344 153 293 q 129 242 110 201 q 91 160 78 132 q 65 104 62 97 q 55 80 62 74 q 70 69 84 70 q 98 72 116 80 q 133 87 147 97 q 164 108 183 125 q 202 142 222 162 q 241 183 260 204 q 279 225 295 244 l 393 362 q 391 356 391 344 q 391 333 387 316 q 383 299 372 276 q 362 254 341 225 l 305 182 q 290 163 263 132 q 236 102 201 72 q 166 43 125 22 q 84 0 41 0 q 6 0 -17 7 q -40 14 -52 26 q -64 39 -68 58 q -71 76 -67 99 q -61 119 -49 156 q -37 192 -20 239 q -3 286 17 342 q 37 397 58 454 q 78 512 99 569 q 120 626 138 677 q 103 677 84 690 q 65 702 56 745 q 80 725 106 726 q 133 728 159 738 q 166 757 174 780 q 183 804 190 824 q 197 845 202 860 q 207 875 208 877 q 214 896 216 907 q 218 918 214 930 q 214 931 236 918 q 257 906 284 886 q 312 867 336 846 q 361 825 367 810 q 368 807 368 800 q 368 792 367 784 q 366 775 365 766 q 364 758 363 753 q 414 758 472 765 q 530 772 588 776 q 645 780 699 780 q 753 779 796 768 q 838 758 866 736 q 893 713 899 674 z"},"M":{"x_min":0,"x_max":2216,"ha":2216,"o":"m 2359 895 q 2348 880 2316 834 q 2285 788 2242 720 q 2199 653 2150 569 q 2101 485 2056 394 q 2010 302 1972 208 q 1935 113 1916 26 q 1897 -62 1901 -138 q 1905 -214 1941 -269 q 1896 -257 1856 -234 q 1817 -212 1787 -181 q 1757 -150 1738 -111 q 1720 -72 1716 -26 q 1710 40 1729 118 q 1748 196 1781 276 q 1814 357 1856 436 q 1899 516 1942 586 q 1985 657 2022 713 q 2060 769 2083 803 q 2047 783 1996 738 q 1945 692 1887 632 q 1829 571 1768 500 q 1707 429 1650 357 q 1594 285 1546 216 q 1498 148 1467 94 q 1464 88 1458 78 q 1452 67 1446 52 q 1441 38 1438 20 q 1436 3 1440 -16 q 1420 -13 1386 1 q 1353 15 1320 40 q 1287 64 1262 98 q 1238 132 1237 176 q 1239 214 1256 266 q 1273 317 1299 375 q 1325 433 1358 494 q 1391 555 1426 612 q 1461 669 1494 720 q 1528 770 1555 807 l 1515 790 q 1471 762 1413 698 q 1355 634 1290 550 q 1226 467 1160 373 q 1094 279 1036 190 q 1018 161 997 134 q 976 108 956 82 q 937 56 922 30 q 906 3 897 -26 q 893 -40 888 -56 q 884 -71 883 -88 q 882 -104 888 -122 q 894 -139 911 -155 q 861 -152 827 -136 q 793 -119 770 -96 q 746 -72 732 -45 q 717 -18 705 6 q 681 58 685 124 q 689 190 713 263 q 737 336 776 413 q 814 490 858 566 q 902 641 946 712 q 991 782 1028 842 q 1065 902 1088 948 q 1112 995 1113 1021 q 1112 1039 1105 1050 q 1098 1060 1082 1066 q 1065 1071 1038 1072 q 1011 1073 970 1072 q 855 1068 734 1038 q 612 1009 496 964 q 381 918 279 860 q 177 802 102 740 q 27 679 -14 618 q -55 557 -49 505 q -46 467 -20 438 q 6 410 46 390 q 87 369 140 355 q 192 341 248 333 q 305 325 363 322 q 421 320 472 321 q 524 322 566 326 q 607 331 632 338 q 619 307 592 290 q 566 273 536 266 q 505 258 476 257 q 447 256 428 257 q 370 259 307 268 q 244 276 182 290 q 121 304 64 325 q 8 346 -37 373 q -82 400 -112 434 q -141 467 -149 508 q -160 569 -134 630 q -107 690 -54 748 q -1 805 76 858 q 152 912 242 958 q 331 1004 430 1042 q 529 1081 627 1108 q 725 1135 818 1150 q 912 1165 992 1165 q 1045 1165 1090 1148 q 1136 1132 1172 1106 q 1207 1081 1230 1050 q 1252 1019 1258 989 q 1253 931 1224 858 q 1196 785 1156 704 q 1115 623 1068 537 q 1020 451 978 366 q 935 281 904 200 q 873 120 864 50 q 868 55 870 62 q 873 69 877 78 q 897 129 943 208 q 989 287 1054 378 q 1118 469 1197 565 q 1276 661 1360 747 q 1445 833 1532 902 q 1618 970 1699 1006 q 1719 1015 1742 1005 q 1764 995 1780 976 q 1797 957 1804 934 q 1811 910 1799 892 q 1776 857 1742 806 q 1709 754 1670 692 q 1632 631 1593 562 q 1554 493 1520 422 q 1485 351 1460 282 q 1434 212 1423 149 q 1455 202 1505 276 q 1555 351 1618 434 q 1680 517 1752 604 q 1825 690 1902 768 q 1979 846 2058 910 q 2138 973 2214 1011 q 2226 1017 2244 1013 q 2261 1009 2278 998 q 2296 988 2313 974 q 2330 959 2342 944 q 2354 929 2359 916 q 2364 902 2359 895 z"},"g":{"x_min":0,"x_max":591,"ha":591,"o":"m -309 -330 q -285 -302 -240 -270 q -196 -237 -140 -204 q -83 -170 -19 -136 q 45 -103 109 -72 q 138 -18 168 44 q 199 105 226 174 q 209 150 180 117 q 151 84 119 55 q 87 26 56 8 q 26 -10 8 -4 q -32 9 -62 26 q -92 43 -94 70 q -96 115 -72 180 q -48 245 0 317 q 16 341 40 372 q 64 403 96 431 q 129 459 170 478 q 212 497 263 497 q 294 497 321 490 q 348 483 368 472 q 388 460 401 446 q 414 431 418 417 q 421 404 418 393 q 414 382 398 382 q 380 382 374 390 q 368 398 364 408 q 359 418 349 426 q 339 435 314 435 q 290 435 264 417 q 239 399 216 374 q 193 348 174 321 q 155 294 144 277 q 144 276 132 257 q 120 238 104 212 q 89 186 74 160 q 59 133 52 117 q 46 105 54 102 q 62 98 79 106 q 96 115 122 140 q 148 164 176 194 q 204 224 230 256 q 257 287 275 310 l 277 315 l 288 330 q 299 345 306 360 q 314 376 318 393 q 318 394 335 386 q 352 378 373 364 q 394 350 414 334 q 433 317 439 302 q 444 288 433 272 q 422 255 407 227 q 386 189 364 141 q 342 93 312 38 q 344 60 371 82 q 398 105 423 130 q 448 156 472 184 q 497 212 524 244 l 621 362 q 619 356 619 344 q 619 333 615 316 q 611 299 600 276 q 590 254 569 225 l 561 218 q 515 165 480 127 q 444 89 411 59 q 378 29 344 5 q 309 -19 264 -43 q 236 -92 204 -143 q 173 -194 140 -241 q 107 -288 72 -328 q 37 -367 2 -393 q -32 -418 -76 -432 q -121 -446 -165 -450 q -209 -454 -248 -448 q -286 -442 -309 -427 q -332 -412 -334 -388 q -337 -363 -309 -330 z m -117 -350 q -87 -332 -38 -278 q 11 -224 65 -139 q 21 -162 -20 -188 q -62 -213 -98 -238 q -135 -262 -166 -285 q -197 -308 -221 -326 q -275 -368 -282 -388 q -290 -407 -268 -408 q -247 -410 -205 -394 q -163 -379 -117 -350 z"},"j":{"x_min":0,"x_max":315,"ha":315,"o":"m -37 200 q -9 268 5 304 q 19 341 26 362 q 32 384 35 400 q 38 416 43 442 q 46 462 48 476 q 49 489 45 501 q 45 502 54 497 q 64 492 78 484 q 92 475 110 464 q 127 452 143 440 q 159 428 170 416 q 182 404 186 394 q 191 380 188 361 q 185 342 174 313 q 148 250 114 181 q 81 112 39 38 q 70 60 97 82 q 124 105 148 130 q 173 156 198 184 q 223 212 250 244 l 347 362 q 345 356 345 344 q 345 333 341 316 q 337 299 326 276 q 316 254 295 225 l 287 218 q 241 165 206 127 q 170 89 137 59 q 104 29 70 5 q 35 -19 -9 -43 q -37 -92 -68 -143 q -100 -194 -133 -241 q -166 -288 -201 -328 q -236 -367 -272 -393 q -306 -418 -350 -432 q -395 -446 -439 -450 q -483 -454 -522 -448 q -560 -442 -583 -427 q -606 -412 -608 -388 q -611 -363 -583 -330 q -559 -302 -516 -270 q -473 -239 -418 -206 q -363 -173 -300 -140 q -238 -107 -175 -77 q -140 -17 -106 52 q -71 121 -37 200 z m -391 -350 q -362 -332 -316 -280 q -271 -227 -219 -145 q -262 -168 -302 -192 q -342 -217 -378 -241 q -413 -265 -443 -287 q -473 -309 -496 -326 q -532 -354 -546 -372 q -561 -390 -560 -399 q -558 -408 -543 -408 q -528 -409 -504 -402 q -481 -396 -452 -382 q -422 -369 -391 -350 z m 131 698 q 194 677 224 656 q 254 634 262 613 q 270 592 262 571 q 253 550 240 530 q 228 510 216 491 q 205 472 206 455 q 152 474 128 494 q 103 513 96 533 q 90 553 97 574 q 104 594 114 614 q 123 635 130 656 q 137 677 131 698 z"},"i":{"x_min":0,"x_max":307,"ha":307,"o":"m -57 99 q -50 126 -40 161 q -30 196 -20 232 q -10 269 0 304 q 11 340 19 370 q 27 400 32 420 q 38 441 40 448 q 46 468 48 478 q 50 489 47 501 q 47 502 56 497 q 65 492 80 484 q 94 475 112 464 q 129 452 145 440 q 161 428 172 416 q 184 404 188 394 q 193 380 191 360 q 189 341 174 313 q 174 313 168 300 q 161 287 151 266 q 141 245 128 220 q 116 195 104 170 q 93 146 84 126 q 74 107 70 97 q 64 80 70 78 q 75 75 84 79 q 94 83 104 90 q 115 98 119 102 q 147 128 180 167 q 212 206 244 244 l 341 362 q 339 356 339 344 q 339 333 335 316 q 331 299 320 276 q 310 254 289 225 l 281 218 l 255 182 q 232 153 209 122 q 186 92 160 66 q 134 38 105 20 q 76 3 50 0 q 33 -2 12 4 q -8 11 -25 24 q -42 38 -52 57 q -62 76 -57 99 z m 131 698 q 194 677 224 656 q 254 634 262 613 q 270 592 262 571 q 253 550 240 530 q 228 510 216 491 q 205 472 206 455 q 152 474 128 494 q 103 513 96 533 q 90 553 97 574 q 104 594 114 614 q 123 635 130 656 q 137 677 131 698 z"},"y":{"x_min":0,"x_max":629,"ha":629,"o":"m 281 218 l 255 182 q 232 153 209 122 q 186 92 160 66 q 134 38 105 20 q 76 3 50 0 q 33 -2 12 4 q -8 11 -25 24 q -42 38 -52 57 q -62 76 -57 99 q -50 126 -40 161 q -30 196 -20 232 q -10 269 0 304 q 11 340 19 370 q 27 400 32 420 q 38 441 40 448 q 46 468 48 478 q 50 489 47 501 q 47 502 56 497 q 65 492 80 484 q 94 475 112 464 q 129 452 145 440 q 161 428 172 416 q 184 404 188 394 q 193 380 191 360 q 189 341 174 313 q 174 313 168 300 q 161 287 151 266 q 141 245 128 220 q 116 195 104 170 q 93 146 84 126 q 74 107 70 97 q 64 80 70 78 q 75 75 84 79 q 94 83 104 90 q 115 98 119 102 q 147 128 180 167 q 212 206 244 244 l 335 355 q 339 368 342 378 q 345 387 347 397 q 349 407 351 418 q 353 428 356 442 q 359 462 360 476 q 362 489 357 501 q 357 502 377 491 q 397 480 422 464 q 448 447 471 428 q 494 409 499 394 q 504 380 501 361 q 498 342 487 313 q 460 250 426 181 q 393 112 351 38 q 382 60 409 82 q 436 105 460 130 q 485 156 510 184 q 535 212 562 244 l 660 362 q 658 356 658 344 q 658 333 654 316 q 650 299 640 276 q 629 254 607 225 q 559 170 522 130 q 484 90 450 60 q 417 29 382 5 q 347 -19 303 -43 q 274 -92 243 -143 q 212 -194 178 -241 q 145 -288 110 -328 q 75 -367 39 -393 q 5 -418 -39 -432 q -83 -446 -126 -450 q -170 -454 -209 -448 q -248 -442 -271 -427 q -294 -412 -296 -388 q -299 -363 -271 -330 q -247 -302 -204 -270 q -161 -239 -106 -206 q -51 -173 12 -140 q 74 -107 137 -77 q 171 -17 206 52 q 242 121 274 200 z m -79 -350 q -50 -332 -5 -280 q 40 -227 94 -145 q 50 -168 10 -192 q -30 -217 -65 -241 q -100 -265 -130 -287 q -160 -309 -183 -326 q -237 -368 -244 -388 q -252 -407 -230 -408 q -209 -410 -167 -394 q -125 -379 -79 -350 z"},"p":{"x_min":0,"x_max":622,"ha":622,"o":"m 169 185 q 164 202 163 218 q 162 235 163 252 q 149 236 139 223 q 129 210 120 196 q 112 181 104 165 q 95 149 83 127 q 75 103 82 84 q 88 65 113 69 q 127 71 148 85 q 169 99 193 122 q 172 154 169 185 z m 229 223 q 230 214 233 196 q 236 177 239 165 q 256 184 274 206 q 291 228 307 251 q 323 274 337 296 q 351 319 360 338 q 380 379 384 407 q 387 435 379 441 q 376 444 369 442 q 362 439 354 434 q 345 429 336 422 q 327 416 320 410 q 271 366 248 322 q 225 277 229 223 z m 540 147 q 521 125 498 104 q 475 84 450 68 q 426 53 401 44 q 376 34 354 34 q 322 34 292 42 q 263 22 236 11 q 209 0 186 0 q 138 0 97 26 q 56 51 35 87 q 8 36 -19 -20 q -46 -75 -70 -130 q -95 -184 -115 -235 q -135 -286 -147 -328 q -159 -371 -162 -402 q -165 -433 -155 -447 q -164 -441 -180 -431 q -197 -421 -212 -406 q -228 -390 -240 -368 q -252 -346 -252 -314 q -252 -295 -240 -253 q -227 -211 -206 -156 q -185 -100 -158 -36 q -132 29 -104 94 q -76 159 -49 220 q -22 281 -1 328 q 20 375 33 406 q 46 438 50 446 q 56 466 53 478 q 50 489 47 501 q 47 502 66 492 q 84 481 108 464 q 131 448 154 430 q 176 411 183 396 q 215 435 249 464 q 283 494 315 501 q 339 506 372 502 q 406 499 438 489 q 470 479 494 464 q 519 450 525 434 q 538 396 527 350 q 516 304 488 256 q 461 208 422 162 q 384 117 342 81 l 345 81 q 381 81 417 106 q 453 130 488 166 q 508 186 526 206 q 543 226 558 244 l 656 362 q 654 356 654 344 q 654 333 650 316 q 646 299 636 276 q 625 254 604 225 l 596 218 l 569 182 z"},"X":{"x_min":0,"x_max":2373,"ha":2373,"o":"m 494 -136 q 639 -133 775 -81 q 911 -29 1040 56 q 1169 140 1292 248 q 1415 356 1536 472 q 1532 545 1526 616 q 1521 688 1509 752 q 1497 816 1478 870 q 1458 924 1427 963 q 1396 1002 1351 1022 q 1306 1043 1244 1041 q 1076 1034 951 988 q 826 942 745 876 q 664 809 629 731 q 594 653 607 581 q 613 535 656 510 q 698 485 760 476 q 822 466 897 468 q 972 470 1045 476 q 1118 483 1180 492 q 1243 500 1280 503 q 1272 473 1244 454 q 1217 436 1184 425 q 1151 414 1119 409 q 1087 404 1071 402 q 1015 394 953 394 q 891 394 829 402 q 767 410 710 426 q 652 441 606 464 q 561 487 530 517 q 499 547 491 585 q 474 659 496 729 q 518 799 570 860 q 622 922 698 973 q 775 1024 867 1060 q 959 1097 1062 1117 q 1165 1137 1269 1137 q 1311 1137 1350 1133 q 1389 1129 1426 1116 q 1463 1104 1500 1082 q 1536 1059 1574 1022 q 1645 952 1678 858 q 1712 765 1727 656 q 1843 767 1960 868 q 2076 968 2196 1042 q 2315 1117 2438 1157 q 2562 1197 2692 1188 q 2733 1185 2770 1175 q 2807 1165 2837 1150 q 2867 1135 2888 1116 q 2908 1097 2916 1076 q 2812 1107 2712 1100 q 2612 1094 2514 1059 q 2417 1024 2321 964 q 2225 905 2129 829 q 2033 753 1936 666 q 1840 578 1741 487 q 1747 384 1754 280 q 1760 176 1780 74 q 1792 13 1820 -13 q 1848 -39 1886 -40 q 1924 -40 1969 -20 q 2014 -1 2060 29 q 2105 59 2148 95 q 2191 131 2226 163 q 2260 195 2282 218 q 2305 240 2309 244 q 2335 272 2358 302 q 2382 333 2406 362 q 2404 356 2404 344 q 2405 333 2401 316 q 2397 299 2386 276 q 2376 253 2354 225 q 2338 205 2310 174 q 2282 142 2244 106 q 2207 69 2162 30 q 2117 -9 2067 -43 q 2017 -77 1964 -102 q 1911 -128 1858 -138 q 1805 -149 1754 -140 q 1703 -132 1657 -99 q 1626 -73 1606 -32 q 1586 10 1574 63 q 1561 116 1554 178 q 1548 240 1544 307 q 1428 205 1308 112 q 1188 20 1061 -50 q 934 -121 799 -164 q 664 -206 519 -208 q 425 -209 332 -194 q 239 -178 162 -146 q 86 -114 34 -66 q -18 -18 -28 47 q -32 71 -23 94 q -14 118 8 134 q 29 151 62 158 q 96 164 140 154 q 121 120 118 90 q 115 59 124 32 q 137 -10 171 -42 q 205 -74 254 -96 q 303 -117 364 -128 q 426 -138 494 -136 z"},"Y":{"x_min":0,"x_max":1847,"ha":1847,"o":"m 1923 1042 q 1929 1009 1922 953 q 1914 897 1896 826 q 1878 754 1852 670 q 1825 585 1793 495 q 1752 380 1696 259 q 1640 138 1570 24 q 1499 -91 1414 -194 q 1329 -296 1230 -374 q 1131 -452 1018 -500 q 904 -549 776 -555 q 644 -561 533 -534 q 422 -507 338 -458 q 254 -410 198 -344 q 143 -279 122 -209 q 101 -130 114 -68 q 127 -7 166 38 q 204 84 262 114 q 321 144 390 160 q 460 176 536 178 q 613 180 686 169 q 759 158 825 136 q 891 113 940 79 q 990 45 1018 1 q 1046 -43 1043 -97 q 1040 -110 1030 -126 q 1021 -141 1004 -154 q 988 -168 964 -177 q 941 -186 911 -187 q 903 -116 867 -67 q 831 -18 778 11 q 725 40 660 50 q 595 61 530 56 q 465 50 404 30 q 344 10 299 -23 q 254 -56 230 -100 q 207 -145 216 -198 q 222 -234 243 -270 q 264 -305 298 -338 q 331 -371 375 -399 q 419 -427 470 -448 q 522 -468 579 -479 q 636 -490 696 -488 q 797 -485 889 -442 q 981 -398 1064 -325 q 1147 -252 1220 -154 q 1293 -57 1357 54 q 1421 165 1474 284 q 1528 402 1572 518 q 1499 419 1420 352 q 1341 284 1264 243 q 1188 202 1119 184 q 1050 166 999 165 q 939 164 896 180 q 854 195 827 218 q 800 242 788 270 q 776 297 776 321 q 777 374 798 436 q 818 497 848 560 q 878 624 913 687 q 948 750 976 808 q 1005 866 1022 916 q 1039 966 1035 1003 q 1034 1021 1026 1032 q 1019 1042 1002 1048 q 986 1053 958 1054 q 931 1055 890 1054 q 775 1049 658 1020 q 540 992 430 948 q 321 903 226 846 q 132 790 64 730 q -4 669 -40 608 q -76 548 -67 496 q -62 458 -36 430 q -10 402 31 382 q 72 362 124 349 q 176 336 232 330 q 288 323 345 321 q 402 319 453 321 q 504 323 546 328 q 587 333 612 340 q 598 309 571 292 q 544 275 513 268 q 482 260 453 259 q 424 258 405 259 q 348 261 285 270 q 222 278 161 292 q 100 306 44 327 q -12 348 -56 375 q -101 402 -130 436 q -160 469 -168 510 q -180 571 -158 630 q -136 690 -88 746 q -39 802 32 854 q 103 905 187 950 q 271 995 364 1031 q 458 1067 552 1093 q 647 1119 738 1133 q 829 1147 909 1147 q 962 1147 1009 1130 q 1056 1114 1092 1088 q 1128 1063 1152 1032 q 1175 1001 1182 971 q 1192 913 1182 853 q 1171 793 1150 734 q 1129 674 1102 617 q 1075 560 1052 508 q 1029 455 1014 409 q 1000 363 1004 327 q 1009 279 1043 263 q 1077 247 1130 261 q 1183 275 1250 318 q 1318 362 1390 432 q 1463 502 1536 598 q 1608 695 1671 816 q 1693 894 1709 960 q 1725 1026 1734 1076 q 1743 1126 1746 1157 q 1749 1188 1746 1195 q 1779 1192 1810 1178 q 1842 1164 1866 1143 q 1890 1122 1906 1096 q 1921 1069 1923 1042 z"},"c":{"x_min":0,"x_max":462,"ha":462,"o":"m 352 528 q 407 507 424 486 q 442 466 436 446 q 431 425 410 404 q 390 384 369 364 q 348 344 334 324 q 320 305 328 287 q 280 305 261 322 q 242 340 242 358 q 242 375 257 393 q 272 411 291 429 q 290 437 285 450 q 261 443 234 418 q 207 393 182 360 q 158 328 139 294 q 120 261 112 237 q 103 210 96 178 q 90 147 91 120 q 92 93 104 76 q 116 58 145 58 q 168 59 196 69 q 224 79 246 94 q 255 100 265 108 q 275 116 292 132 q 308 148 333 174 q 358 201 397 244 l 495 362 q 493 356 493 344 q 493 333 489 316 q 485 299 474 276 q 464 254 442 225 l 435 218 q 393 166 354 124 q 314 83 276 54 q 238 26 200 11 q 161 -4 120 -4 q 75 -4 44 8 q 13 20 -6 41 q -26 62 -35 90 q -44 118 -46 150 q -47 177 -39 214 q -31 251 -14 290 q 2 330 28 368 q 53 407 86 438 q 120 469 160 489 q 201 509 248 511 q 254 511 264 508 q 275 506 288 502 q 300 497 313 492 q 326 486 337 479 q 345 491 350 503 q 355 515 352 528 z"},"[":{"x_min":0,"x_max":493,"ha":493,"o":"m 74 633 q 72 663 70 701 q 68 739 72 772 q 77 805 91 828 q 105 851 137 853 l 232 858 q 206 846 193 826 q 180 805 174 784 q 169 762 170 744 q 170 726 170 720 l 206 -106 q 207 -112 212 -131 q 216 -150 228 -172 q 240 -194 261 -214 q 282 -233 315 -240 q 290 -241 257 -242 q 224 -244 195 -232 q 162 -220 144 -190 q 125 -161 116 -124 q 107 -88 104 -50 q 101 -11 99 19 z"},"6":{"x_min":0,"x_max":813,"ha":813,"o":""},"r":{"x_min":0,"x_max":468,"ha":468,"o":"m 78 650 q 129 633 156 614 q 183 595 192 576 q 202 556 198 536 q 194 516 183 496 q 172 477 158 458 q 143 440 132 423 q 147 417 160 416 q 174 414 185 414 q 198 414 212 417 q 226 420 240 428 q 254 436 267 451 q 280 466 292 489 q 315 487 340 476 q 365 465 384 450 q 402 435 409 419 q 416 403 404 391 q 373 361 338 321 q 303 281 272 240 q 242 199 220 162 q 199 124 195 99 q 194 92 194 84 q 193 75 198 70 q 202 66 216 70 q 229 74 257 93 q 275 106 314 146 q 354 187 404 244 l 502 362 q 500 356 500 344 q 500 333 496 316 q 492 299 482 276 q 471 254 449 225 q 418 191 384 152 q 350 112 314 78 q 279 45 242 22 q 205 0 169 0 q 109 1 81 36 q 53 70 58 123 q 63 176 102 242 q 141 307 215 369 q 192 370 166 370 q 139 370 102 384 l -16 230 l -64 175 q -69 189 -75 203 q -81 217 -71 237 l -56 254 q -11 309 17 348 q 45 388 55 408 q 28 426 20 446 q 13 466 18 486 q 22 507 34 528 q 45 549 56 570 q 68 591 76 611 q 83 631 78 650 z"},"2":{"x_min":0,"x_max":813,"ha":813,"o":""},"{":{"x_min":0,"x_max":384,"ha":384,"o":"m 308 675 q 314 608 304 557 q 295 506 276 468 q 256 431 230 406 q 205 381 179 365 q 153 349 130 341 q 108 333 96 331 q 107 325 125 314 q 143 304 160 285 q 176 266 188 236 q 200 207 198 164 q 197 120 178 61 q 160 2 116 -77 q 110 -86 108 -102 q 106 -119 109 -136 q 112 -153 120 -168 q 129 -184 145 -192 l 100 -192 q 55 -192 28 -169 q 1 -146 -10 -114 q -21 -81 -18 -46 q -14 -10 1 16 q 36 77 59 119 q 82 161 94 190 q 107 218 110 236 q 112 255 106 270 q 100 284 86 298 q 73 312 53 331 q 80 349 101 372 q 122 395 137 434 q 152 473 159 533 q 166 593 164 686 q 163 719 175 748 q 187 777 208 798 q 229 819 258 832 q 288 844 323 844 l 412 844 q 392 843 373 823 q 354 803 339 776 q 324 749 316 721 q 307 693 308 675 z"},"9":{"x_min":0,"x_max":813,"ha":813,"o":""}," ":{"x_min":0,"x_max":423,"ha":423,"o":""},"I":{"x_min":0,"x_max":1558,"ha":1558,"o":"m 468 -83 q 602 -83 713 -44 q 824 -5 914 60 q 1004 124 1074 208 q 1144 293 1196 384 q 1249 475 1285 567 q 1321 659 1343 738 q 1365 817 1374 878 q 1382 939 1380 968 q 1378 995 1373 1014 q 1368 1034 1356 1046 q 1343 1058 1322 1062 q 1301 1067 1267 1064 q 1175 1052 1090 1024 q 1006 997 934 960 q 861 923 803 879 q 745 835 706 790 q 668 745 652 702 q 635 658 645 621 q 659 573 698 556 q 736 539 788 544 q 841 550 902 575 q 962 600 1019 638 q 1076 675 1124 721 q 1171 767 1198 815 q 1202 756 1182 698 q 1162 641 1118 593 q 1075 545 1010 512 q 946 480 862 473 q 726 465 646 505 q 565 545 551 631 q 542 687 560 744 q 579 801 621 854 q 663 907 725 954 q 787 1002 864 1041 q 941 1080 1030 1107 q 1120 1134 1217 1147 q 1255 1152 1304 1148 q 1354 1144 1402 1127 q 1450 1110 1490 1076 q 1529 1043 1548 988 q 1561 950 1560 880 q 1560 811 1543 724 q 1526 637 1490 538 q 1455 440 1398 344 q 1341 247 1262 158 q 1182 69 1076 2 q 971 -66 838 -106 q 705 -147 542 -147 q 472 -147 403 -134 q 334 -122 271 -99 q 208 -76 152 -44 q 97 -13 54 24 q 11 61 -18 103 q -47 145 -58 189 q -76 259 -52 326 q -29 393 31 443 q 91 493 186 520 q 280 548 406 539 q 505 531 587 508 q 669 484 724 448 q 780 412 805 366 q 830 321 815 271 q 812 259 802 245 q 793 231 777 219 q 761 207 738 199 q 715 191 686 191 q 686 258 657 304 q 628 351 582 380 q 535 408 476 420 q 416 431 354 428 q 292 424 233 406 q 174 389 128 360 q 82 330 55 290 q 28 251 30 203 q 32 154 69 103 q 106 52 166 11 q 227 -30 306 -56 q 384 -83 468 -83 z"},"H":{"x_min":0,"x_max":1866,"ha":1866,"o":"m 1253 987 q 1252 940 1238 890 q 1224 839 1202 785 q 1179 731 1151 675 q 1123 619 1093 563 q 1184 561 1276 558 q 1368 555 1453 553 q 1510 675 1566 795 q 1623 915 1664 1019 q 1704 1123 1719 1203 q 1734 1283 1709 1325 q 1765 1298 1798 1270 q 1831 1241 1847 1210 q 1863 1180 1865 1147 q 1867 1114 1862 1078 q 1856 1033 1838 975 q 1819 917 1792 849 q 1766 781 1734 706 q 1702 631 1669 552 q 1721 554 1758 558 q 1796 563 1815 572 q 1812 516 1761 488 q 1710 460 1627 451 q 1580 335 1541 221 q 1502 107 1485 8 q 1468 -92 1480 -171 q 1493 -250 1549 -296 q 1489 -299 1436 -278 q 1383 -256 1342 -222 q 1302 -187 1277 -144 q 1252 -102 1248 -62 q 1243 -19 1254 38 q 1265 94 1286 160 q 1308 225 1338 298 q 1368 371 1403 448 q 1318 452 1227 460 q 1136 468 1044 476 q 1003 399 968 325 q 934 251 918 184 q 902 118 910 62 q 919 6 964 -36 q 913 -33 874 -17 q 834 -1 805 22 q 776 46 757 73 q 738 100 728 124 q 713 162 714 205 q 714 248 726 294 q 738 341 760 390 q 781 438 808 488 q 728 490 662 483 q 597 476 552 456 q 543 483 562 502 q 581 521 622 534 q 662 546 720 552 q 779 559 849 562 q 893 634 940 703 q 987 772 1026 832 q 1064 892 1088 940 q 1111 988 1109 1019 q 1108 1037 1100 1048 q 1093 1058 1076 1064 q 1060 1069 1032 1070 q 1005 1071 964 1070 q 878 1067 788 1049 q 697 1031 608 1003 q 519 975 434 938 q 350 900 276 858 q 201 815 139 769 q 77 723 34 677 q -10 631 -32 586 q -54 542 -49 503 q -45 465 -19 436 q 7 408 47 388 q 87 367 139 353 q 191 339 247 331 q 303 323 360 320 q 417 318 468 319 q 519 320 560 324 q 602 329 627 336 q 612 305 584 288 q 557 271 526 264 q 496 256 466 255 q 437 254 419 255 q 361 257 299 266 q 237 274 176 288 q 116 302 60 323 q 5 344 -39 371 q -83 398 -112 432 q -141 465 -149 506 q -160 567 -134 628 q -109 688 -56 746 q -3 803 72 856 q 148 910 238 956 q 327 1002 425 1040 q 523 1079 622 1106 q 720 1133 813 1148 q 906 1163 986 1163 q 1039 1163 1084 1146 q 1130 1130 1166 1104 q 1201 1079 1224 1048 q 1246 1017 1253 987 z"},"4":{"x_min":0,"x_max":813,"ha":813,"o":""},"~":{"x_min":0,"x_max":1009,"ha":1009,"o":"m 355 308 q 423 308 486 298 q 548 287 602 282 q 655 278 698 287 q 740 296 767 335 q 784 298 780 271 q 776 244 758 226 q 740 208 712 199 q 684 190 653 189 q 596 187 544 197 q 491 207 442 213 q 392 219 344 212 q 297 206 251 171 q 234 204 238 230 q 242 255 259 272 q 276 290 302 299 q 328 308 355 308 z"},"D":{"x_min":0,"x_max":1859,"ha":1859,"o":"m 1253 987 q 1252 954 1244 919 q 1237 884 1225 846 q 1250 885 1272 920 q 1295 954 1318 985 q 1341 1016 1366 1044 q 1390 1071 1420 1097 q 1442 1116 1476 1126 q 1511 1135 1551 1134 q 1591 1134 1633 1124 q 1675 1114 1712 1094 q 1749 1074 1778 1044 q 1807 1015 1822 976 q 1850 898 1856 806 q 1861 714 1844 617 q 1826 520 1786 422 q 1745 325 1682 235 q 1619 145 1534 67 q 1448 -11 1340 -68 q 1232 -125 1102 -156 q 971 -188 819 -186 q 700 -185 602 -166 q 503 -148 431 -116 q 359 -85 317 -42 q 275 2 269 55 q 266 86 283 112 q 300 139 332 156 q 365 173 410 178 q 456 183 509 170 q 466 144 450 112 q 435 81 442 50 q 449 18 478 -12 q 506 -43 552 -66 q 598 -90 659 -104 q 720 -119 793 -120 q 931 -122 1040 -86 q 1150 -51 1236 10 q 1321 72 1384 153 q 1446 234 1490 323 q 1533 412 1559 504 q 1585 595 1597 677 q 1609 759 1608 826 q 1608 893 1599 933 q 1585 1011 1564 1029 q 1544 1047 1503 1007 q 1426 937 1350 849 q 1275 761 1204 665 q 1134 569 1070 469 q 1005 369 948 275 q 929 228 918 184 q 907 140 908 100 q 908 60 921 26 q 934 -8 964 -36 q 913 -33 874 -17 q 834 -1 805 22 q 776 46 757 73 q 738 100 728 124 q 709 175 716 234 q 722 293 746 357 q 770 421 806 487 q 843 553 884 618 q 925 682 966 742 q 1008 803 1040 855 q 1072 907 1092 949 q 1111 991 1109 1019 q 1108 1037 1100 1048 q 1093 1058 1076 1064 q 1060 1069 1032 1070 q 1005 1071 964 1070 q 878 1067 788 1049 q 697 1031 608 1003 q 519 975 434 938 q 350 900 276 858 q 201 815 139 769 q 77 723 34 677 q -10 631 -32 586 q -54 542 -49 503 q -45 465 -19 436 q 7 408 47 388 q 87 367 139 353 q 191 339 247 331 q 303 323 360 320 q 417 318 468 319 q 519 320 560 324 q 602 329 627 336 q 612 305 584 288 q 557 271 526 264 q 496 256 466 255 q 437 254 419 255 q 361 257 299 266 q 237 274 176 288 q 116 302 60 323 q 5 344 -39 371 q -83 398 -112 432 q -141 465 -149 506 q -160 567 -134 628 q -109 688 -56 746 q -3 803 72 856 q 148 910 238 956 q 327 1002 425 1040 q 523 1079 622 1106 q 720 1133 813 1148 q 906 1163 986 1163 q 1039 1163 1084 1146 q 1130 1130 1166 1104 q 1201 1079 1224 1048 q 1246 1017 1253 987 z"},"^":{"x_min":0,"x_max":938,"ha":938,"o":"m 161 207 q 217 218 269 236 q 321 253 368 274 q 415 296 458 319 q 501 342 539 365 q 564 330 584 307 q 604 284 624 267 q 644 250 666 236 q 687 222 716 204 q 645 191 601 193 q 557 195 530 204 q 504 213 490 226 q 477 238 467 246 q 400 228 359 217 q 318 206 288 202 q 257 197 230 198 q 202 200 161 207 z"},"0":{"x_min":0,"x_max":813,"ha":813,"o":""},"F":{"x_min":0,"x_max":1324,"ha":1324,"o":"m 2519 1099 q 2534 1063 2520 1030 q 2507 998 2474 973 q 2441 948 2392 932 q 2344 915 2290 912 q 2206 907 2091 917 q 1976 927 1841 946 q 1706 964 1558 988 q 1410 1013 1261 1036 q 1288 998 1294 960 q 1299 921 1289 881 q 1272 815 1238 742 q 1205 668 1167 590 q 1236 582 1296 585 q 1355 588 1399 609 q 1382 569 1354 544 q 1326 520 1290 508 q 1254 496 1210 494 q 1167 492 1119 498 q 1084 432 1050 366 q 1016 300 988 237 q 961 174 942 116 q 924 58 920 7 q 917 -44 932 -86 q 946 -128 984 -158 q 933 -155 892 -138 q 852 -122 822 -99 q 791 -76 769 -49 q 747 -22 733 2 q 705 50 708 112 q 711 174 735 244 q 759 315 800 391 q 840 467 888 544 q 813 563 739 581 q 665 599 597 609 q 529 619 471 616 q 413 612 370 587 q 404 636 464 655 q 525 674 601 674 q 677 673 764 658 q 851 644 940 627 q 980 690 1019 750 q 1058 811 1090 866 q 1122 920 1144 967 q 1166 1014 1172 1050 q 1099 1061 1028 1071 q 956 1081 887 1089 q 738 1106 606 1084 q 474 1061 364 1014 q 253 966 167 900 q 81 833 24 762 q -33 692 -58 624 q -82 555 -70 503 q -59 453 -12 418 q 34 384 100 362 q 166 341 244 331 q 322 321 396 319 q 469 317 530 322 q 592 327 625 336 q 613 305 587 288 q 561 271 531 264 q 501 256 472 255 q 443 254 425 255 q 367 257 304 266 q 240 274 178 288 q 116 302 58 323 q 0 344 -47 371 q -94 398 -126 432 q -159 465 -170 506 q -194 587 -165 672 q -136 757 -68 836 q 1 916 104 984 q 206 1052 330 1100 q 455 1147 595 1169 q 735 1191 879 1177 q 979 1167 1090 1154 q 1202 1140 1320 1126 q 1437 1111 1557 1096 q 1677 1082 1792 1072 q 1908 1061 2016 1055 q 2124 1049 2218 1051 q 2312 1053 2389 1064 q 2466 1076 2519 1099 z"},"`":{"x_min":0,"x_max":1166,"ha":1166,"o":"m 165 680 q 236 647 297 610 q 358 572 399 528 q 324 560 270 578 q 215 595 169 613 q 149 622 136 638 q 123 655 120 668 q 118 682 128 688 q 138 693 165 680 z"},"k":{"x_min":0,"x_max":617,"ha":617,"o":"m 358 456 q 289 408 250 376 q 210 343 187 316 q 164 290 150 264 q 135 238 115 202 q 108 183 114 169 q 121 155 142 158 q 158 160 188 182 q 219 203 253 235 q 287 267 318 304 q 350 341 370 374 q 373 379 378 390 q 383 402 387 416 q 391 429 394 442 q 396 455 394 462 q 392 470 384 470 q 375 469 358 456 z m 77 -5 q 36 -3 7 9 q -22 21 -38 40 q -55 60 -59 85 q -63 110 -53 138 q -47 158 -33 200 q -19 241 0 295 q 19 349 42 412 q 65 475 88 538 q 111 601 132 660 q 154 719 171 766 q 188 812 199 842 q 210 872 211 877 q 216 896 219 907 q 222 918 218 930 q 218 931 240 918 q 261 906 288 886 q 315 867 340 846 q 364 825 370 810 q 375 796 374 777 q 372 758 357 730 q 349 722 330 688 q 311 655 286 604 q 261 554 232 492 q 204 430 177 366 q 197 386 220 407 q 242 428 264 446 q 287 465 309 480 q 331 495 352 504 q 370 511 398 508 q 426 506 453 498 q 480 489 502 476 q 523 463 528 450 q 539 418 531 379 q 523 340 501 300 q 479 261 446 224 q 412 186 372 158 q 333 129 290 112 q 247 96 206 98 q 195 98 186 100 q 176 101 166 103 q 189 87 219 77 q 249 67 283 69 q 314 70 343 78 q 372 87 398 100 q 423 114 446 131 q 468 148 485 166 q 505 186 522 206 q 540 226 556 244 l 655 362 q 653 356 652 344 q 652 333 648 316 q 644 299 634 276 q 623 254 601 225 l 595 218 l 567 182 l 537 147 q 518 125 488 97 q 458 69 422 45 q 386 21 346 4 q 307 -12 268 -10 q 199 -8 152 22 q 104 52 80 94 q 72 57 70 32 q 69 6 77 -5 z"},"u":{"x_min":0,"x_max":636,"ha":636,"o":"m 307 253 q 304 246 299 240 q 294 233 289 225 l 281 218 l 255 182 q 232 153 209 122 q 186 92 160 66 q 134 38 105 20 q 76 3 50 0 q 33 -2 12 4 q -8 11 -25 24 q -42 38 -52 57 q -62 76 -57 99 q -50 126 -40 161 q -30 196 -20 232 q -10 269 0 304 q 11 340 19 370 q 27 400 32 420 q 38 441 40 448 q 46 468 48 478 q 50 489 47 501 q 47 502 56 497 q 65 492 80 484 q 94 475 112 464 q 129 452 145 440 q 161 428 172 416 q 184 404 188 394 q 193 380 191 360 q 189 341 174 313 q 174 313 168 300 q 161 287 151 266 q 141 245 128 220 q 116 195 104 170 q 93 146 84 126 q 74 107 70 97 q 64 80 70 78 q 75 75 84 79 q 94 83 104 90 q 115 98 119 102 q 147 128 180 167 q 212 206 244 244 l 338 357 l 362 448 q 368 468 371 478 q 374 489 369 501 q 369 502 378 497 q 388 492 402 484 q 416 475 434 464 q 451 452 467 440 q 483 428 494 416 q 506 404 510 394 q 515 380 514 360 q 512 341 498 313 q 498 313 492 300 q 485 287 474 266 q 464 245 451 220 q 438 195 426 170 q 415 146 406 126 q 396 107 392 97 q 386 80 392 78 q 397 75 406 79 q 416 83 426 90 q 437 98 441 102 q 470 128 502 167 q 534 206 566 244 l 665 362 q 663 356 663 344 q 663 333 658 316 q 654 299 644 276 q 633 254 611 225 l 577 182 q 555 153 532 122 q 508 92 482 66 q 456 38 428 20 q 399 3 372 0 q 356 -2 336 4 q 315 11 298 24 q 280 38 270 57 q 259 76 264 99 z"},"]":{"x_min":0,"x_max":567,"ha":567,"o":"m 236 -23 q 237 -53 240 -91 q 242 -129 238 -162 q 233 -195 218 -218 q 204 -242 173 -243 l 79 -248 q 104 -236 118 -216 q 131 -195 136 -174 q 141 -152 141 -134 q 141 -116 141 -110 l 104 716 q 104 722 100 741 q 95 760 83 782 q 71 804 50 824 q 29 843 -4 850 q 21 851 54 852 q 86 854 116 842 q 149 830 167 800 q 185 771 194 734 q 203 698 206 660 q 209 621 211 591 z"},"U":{"x_min":0,"x_max":1989,"ha":1989,"o":"m 1869 1126 q 1929 1111 1967 1089 q 2005 1067 2025 1040 q 2045 1013 2050 982 q 2056 951 2052 919 q 2044 860 2022 794 q 2001 727 1972 656 q 1943 585 1911 512 q 1879 438 1852 364 q 1824 290 1805 218 q 1786 146 1783 78 q 1781 52 1781 20 q 1781 -12 1795 -42 q 1809 -73 1844 -98 q 1878 -123 1945 -136 q 1865 -166 1800 -165 q 1734 -164 1684 -146 q 1633 -127 1599 -96 q 1565 -66 1549 -36 q 1531 -3 1526 37 q 1520 77 1525 123 q 1530 169 1544 218 q 1557 268 1577 321 q 1491 220 1398 136 q 1306 51 1219 -10 q 1132 -71 1056 -104 q 980 -137 925 -136 q 862 -135 822 -119 q 782 -103 758 -82 q 735 -60 724 -38 q 714 -15 710 0 q 697 51 711 115 q 725 179 756 250 q 788 322 833 398 q 878 474 926 548 q 975 623 1023 693 q 1071 763 1108 822 q 1145 882 1166 928 q 1188 975 1185 1003 q 1184 1021 1176 1032 q 1169 1042 1152 1048 q 1136 1053 1108 1054 q 1081 1055 1040 1054 q 954 1051 858 1035 q 762 1019 664 994 q 565 970 468 937 q 372 904 285 866 q 198 828 124 786 q 51 744 -1 702 q -53 659 -80 616 q -106 574 -100 535 q -95 497 -69 469 q -43 441 -2 421 q 38 401 90 388 q 142 375 198 368 q 254 362 311 360 q 368 358 419 360 q 470 362 512 367 q 553 372 579 379 q 564 348 537 331 q 510 314 479 306 q 448 299 419 298 q 390 297 371 298 q 314 300 251 308 q 188 317 128 331 q 67 345 11 366 q -45 387 -90 414 q -134 441 -164 474 q -194 508 -202 549 q -214 610 -184 668 q -154 726 -92 780 q -31 833 56 881 q 143 929 244 970 q 346 1010 456 1043 q 566 1076 674 1099 q 781 1122 880 1134 q 979 1147 1059 1147 q 1112 1147 1158 1130 q 1205 1114 1241 1088 q 1277 1063 1300 1032 q 1324 1001 1332 971 q 1339 928 1324 872 q 1309 815 1280 751 q 1250 687 1210 618 q 1171 548 1130 478 q 1088 409 1049 342 q 1010 274 982 214 q 954 154 941 104 q 928 55 938 20 q 952 -27 999 -24 q 1046 -20 1115 22 q 1184 64 1270 140 q 1355 215 1445 312 q 1535 409 1623 523 q 1711 637 1786 756 q 1819 821 1845 880 q 1871 939 1884 987 q 1898 1035 1896 1070 q 1893 1106 1869 1126 z"},"o":{"x_min":0,"x_max":564,"ha":564,"o":"m -63 76 q -78 110 -76 148 q -74 185 -60 222 q -45 258 -22 292 q 2 325 31 352 q 40 382 59 410 q 78 437 105 458 q 132 478 166 490 q 201 502 240 501 q 317 499 357 465 q 397 431 404 381 q 413 312 392 246 q 370 181 328 128 q 360 135 400 157 q 441 179 488 228 l 602 362 q 600 356 600 344 q 600 333 596 316 q 591 299 580 276 q 570 254 548 225 l 542 218 q 521 193 494 166 q 466 139 434 117 q 402 95 366 80 q 329 66 290 66 q 284 66 278 66 q 273 66 266 67 q 224 32 176 14 q 127 -4 80 -2 q 34 0 -5 16 q -44 33 -63 76 z m 137 256 q 147 228 162 202 q 177 177 198 159 q 216 190 232 225 q 249 260 261 294 q 273 327 280 356 q 286 385 286 404 q 287 433 275 448 q 263 464 248 464 q 205 464 178 444 q 152 424 138 392 q 161 394 182 389 q 202 384 215 371 q 219 367 222 364 q 225 360 227 355 q 222 352 217 349 q 212 346 207 342 q 187 327 170 304 q 152 282 137 256 z m 154 97 q 118 117 87 146 l 84 130 q 81 118 80 106 q 78 93 80 83 q 82 73 88 67 q 93 61 103 62 q 127 64 154 97 z"},"N":{"x_min":0,"x_max":1750,"ha":1750,"o":"m 1933 918 q 1906 873 1860 802 q 1815 732 1761 645 q 1707 558 1650 458 q 1594 359 1544 256 q 1495 152 1458 49 q 1421 -54 1408 -148 q 1394 -243 1409 -324 q 1424 -405 1478 -465 q 1387 -440 1322 -386 q 1256 -331 1222 -244 q 1201 -189 1208 -114 q 1216 -40 1244 45 q 1271 130 1312 220 q 1354 311 1402 398 q 1449 484 1498 562 q 1546 639 1586 698 q 1626 757 1654 792 q 1681 828 1686 831 q 1640 808 1578 764 q 1517 720 1448 662 q 1380 605 1309 536 q 1238 468 1172 396 q 1106 324 1050 251 q 993 178 954 111 q 915 44 897 -14 q 879 -71 891 -112 q 893 -118 899 -128 q 905 -138 925 -158 q 874 -155 836 -138 q 798 -122 770 -99 q 742 -76 723 -49 q 704 -22 693 2 q 669 54 674 120 q 678 186 702 259 q 727 332 766 410 q 806 487 851 562 q 896 638 942 709 q 988 780 1026 840 q 1063 900 1087 946 q 1111 993 1113 1019 q 1112 1037 1105 1048 q 1098 1058 1082 1064 q 1065 1069 1038 1070 q 1010 1071 969 1070 q 854 1065 732 1036 q 611 1007 496 962 q 380 916 278 858 q 176 800 101 738 q 26 677 -15 616 q -56 555 -50 503 q -47 465 -21 436 q 5 408 46 388 q 86 367 138 353 q 191 339 248 331 q 304 323 362 320 q 420 318 472 319 q 523 320 565 324 q 607 329 632 336 q 618 305 592 288 q 565 271 535 264 q 505 256 476 255 q 446 254 428 255 q 370 257 307 266 q 244 274 182 288 q 120 302 64 323 q 7 344 -38 371 q -83 398 -112 432 q -142 465 -150 506 q -161 567 -135 628 q -109 688 -56 746 q -2 803 74 856 q 150 910 240 956 q 330 1002 428 1040 q 527 1079 626 1106 q 724 1133 818 1148 q 911 1163 991 1163 q 1044 1163 1090 1146 q 1136 1130 1171 1104 q 1206 1079 1228 1048 q 1251 1017 1257 987 q 1253 937 1234 878 q 1214 818 1185 752 q 1156 687 1120 618 q 1084 548 1048 478 q 1011 408 976 338 q 942 268 917 203 q 953 261 1010 336 q 1068 410 1139 490 q 1210 570 1290 651 q 1371 732 1454 804 q 1538 876 1620 934 q 1702 991 1775 1024 q 1788 1030 1806 1026 q 1824 1023 1843 1014 q 1862 1005 1880 992 q 1898 978 1912 964 q 1925 950 1931 938 q 1937 925 1933 918 z"},"G":{"x_min":0,"x_max":1798,"ha":1798,"o":"m 1844 1107 q 1921 1080 1954 1046 q 1986 1012 1988 974 q 1989 935 1965 894 q 1941 852 1906 810 q 1871 768 1831 726 q 1791 685 1759 648 q 1727 610 1710 577 q 1694 544 1705 519 q 1655 543 1632 572 q 1610 601 1608 633 q 1606 665 1620 700 q 1635 734 1658 770 q 1682 805 1712 840 q 1741 876 1768 911 q 1772 936 1768 956 q 1764 977 1746 990 q 1728 1004 1694 1009 q 1659 1014 1601 1008 q 1524 1000 1438 964 q 1351 927 1268 872 q 1184 817 1110 748 q 1037 678 986 602 q 934 525 911 447 q 888 369 906 297 q 918 250 936 220 q 955 190 980 172 q 1004 155 1035 148 q 1066 142 1104 142 q 1151 143 1195 157 q 1239 171 1278 194 q 1318 217 1351 246 q 1384 275 1410 305 q 1423 320 1435 338 q 1447 356 1461 388 q 1471 418 1478 448 q 1485 477 1476 502 q 1475 503 1486 498 q 1498 494 1516 485 q 1534 476 1555 464 q 1576 452 1596 439 q 1616 426 1631 412 q 1646 398 1652 386 q 1660 369 1655 343 q 1650 317 1639 284 q 1631 257 1622 224 q 1612 190 1601 156 q 1557 63 1504 -28 q 1452 -118 1391 -199 q 1330 -280 1260 -350 q 1189 -419 1110 -471 q 1030 -523 942 -556 q 853 -588 755 -594 q 624 -603 513 -578 q 402 -553 316 -506 q 231 -458 174 -394 q 116 -329 92 -258 q 67 -183 85 -110 q 103 -36 162 22 q 220 79 317 113 q 414 147 548 143 q 652 139 740 117 q 829 95 890 58 q 952 22 982 -26 q 1013 -73 1002 -128 q 1000 -142 992 -158 q 983 -173 968 -187 q 952 -201 929 -211 q 906 -221 875 -222 q 877 -166 857 -121 q 837 -76 796 -44 q 754 -11 692 7 q 631 25 550 27 q 468 29 398 8 q 328 -14 278 -50 q 229 -87 203 -136 q 177 -185 184 -239 q 191 -292 235 -346 q 279 -399 347 -441 q 415 -483 500 -508 q 585 -533 674 -529 q 793 -523 898 -460 q 1002 -398 1092 -297 q 1181 -196 1256 -66 q 1331 64 1392 205 q 1335 147 1254 108 q 1174 69 1074 69 q 997 69 940 88 q 882 106 841 138 q 800 171 774 214 q 747 256 733 304 q 714 367 722 436 q 729 504 758 573 q 786 642 834 709 q 881 776 943 836 q 1005 897 1078 948 q 1152 1000 1233 1038 q 1314 1075 1400 1096 q 1487 1118 1573 1119 q 1666 1123 1734 1094 q 1801 1065 1838 1018 q 1849 1043 1852 1065 q 1854 1087 1844 1107 z"},"q":{"x_min":0,"x_max":587,"ha":587,"o":"m 460 332 q 450 319 429 286 q 408 252 380 204 q 353 156 322 98 q 290 40 259 -22 q 301 8 340 44 q 380 79 418 119 q 442 145 470 179 q 498 213 524 244 l 621 362 q 619 356 619 344 q 619 333 615 316 q 611 299 600 276 q 590 254 569 225 q 488 113 400 23 q 311 -67 211 -119 q 185 -175 164 -227 q 143 -279 130 -322 q 117 -366 114 -398 q 110 -431 120 -447 q 110 -441 94 -431 q 78 -421 62 -406 q 46 -390 34 -368 q 23 -346 22 -314 q 22 -296 33 -258 q 44 -221 62 -170 q 46 -172 30 -174 q 15 -175 -2 -175 q -24 -175 -45 -170 q -66 -164 -80 -154 q -94 -145 -98 -130 q -102 -116 -90 -98 q -48 -117 -4 -118 q 39 -119 86 -107 q 108 -49 135 14 q 162 78 190 141 q 179 129 168 116 q 156 104 148 93 q 131 70 111 50 q 91 31 71 18 q 51 4 33 -2 q 15 -8 2 -4 q -18 2 -36 10 q -53 17 -67 26 q -81 35 -90 46 q -98 56 -99 70 q -101 115 -78 180 q -54 245 -6 317 q 17 351 42 382 q 68 414 96 440 q 123 465 151 482 q 179 500 207 506 q 216 507 235 505 q 254 503 276 498 q 299 493 322 484 q 345 476 363 466 q 396 504 433 523 q 448 524 472 516 q 496 507 520 494 q 543 481 561 466 q 579 452 581 442 q 563 443 544 430 q 526 416 510 398 q 494 379 481 360 q 468 342 460 332 z m 43 102 q 59 94 86 114 q 112 134 142 166 q 173 198 204 235 q 235 272 259 298 l 273 328 q 285 354 302 382 q 319 411 341 439 l 334 444 q 329 446 322 446 q 316 446 306 446 q 262 435 224 391 q 185 347 138 277 q 138 276 130 264 q 122 251 111 232 q 100 213 87 190 q 74 168 64 149 q 53 130 47 116 q 41 103 43 102 z"},"d":{"x_min":0,"x_max":570,"ha":570,"o":"m 225 189 q 211 169 190 142 q 168 114 144 92 q 121 72 100 53 q 78 34 58 20 q 39 6 22 -1 q 5 -8 -8 -4 q -48 9 -78 26 q -109 43 -110 70 q -112 115 -88 180 q -65 245 -17 317 q 6 351 35 384 q 64 418 95 446 q 126 473 157 492 q 188 512 216 518 q 222 519 238 518 q 255 517 273 512 q 291 506 306 497 q 320 488 323 473 q 335 507 350 549 q 366 591 383 635 q 400 679 416 721 q 433 763 446 797 q 459 831 468 853 q 476 875 477 878 q 482 897 484 908 q 486 918 483 930 q 483 931 504 918 q 526 906 554 887 q 581 868 606 847 q 630 826 635 811 q 640 797 638 778 q 636 759 622 730 q 622 730 610 704 q 598 679 578 637 q 557 595 532 540 q 506 486 479 428 q 452 371 426 314 q 399 258 378 212 q 356 167 342 136 q 328 104 325 97 q 319 80 324 78 q 329 75 338 79 q 348 83 358 90 q 369 98 374 102 q 402 128 434 167 q 466 206 498 244 l 596 362 q 594 356 594 344 q 594 333 590 316 q 585 299 574 276 q 564 254 542 225 l 536 218 l 508 182 q 486 153 462 122 q 439 92 415 66 q 387 38 359 20 q 331 3 305 0 q 288 -2 268 4 q 247 11 230 24 q 212 38 202 57 q 191 76 195 99 z m 309 438 q 306 453 298 452 q 290 451 287 450 q 245 434 207 388 q 169 342 127 277 q 127 276 119 264 q 111 251 100 232 q 89 213 76 190 q 63 168 52 149 q 42 130 36 116 q 30 103 32 102 q 43 96 64 106 q 85 117 110 137 q 135 157 162 183 q 188 209 210 235 q 233 261 249 284 q 265 306 268 318 z"},"1":{"x_min":0,"x_max":813,"ha":813,"o":""},"5":{"x_min":0,"x_max":813,"ha":813,"o":""}}}
